<?xml version="1.0" encoding="utf-8" standalone="no"?>
<!DOCTYPE svg PUBLIC "-//W3C//DTD SVG 1.1//EN"
  "http://www.w3.org/Graphics/SVG/1.1/DTD/svg11.dtd">
<svg xmlns:xlink="http://www.w3.org/1999/xlink" width="611.2125pt" height="329.194063pt" viewBox="0 0 611.2125 329.194063" xmlns="http://www.w3.org/2000/svg" version="1.1">
 <metadata>
  <rdf:RDF xmlns:dc="http://purl.org/dc/elements/1.1/" xmlns:cc="http://creativecommons.org/ns#" xmlns:rdf="http://www.w3.org/1999/02/22-rdf-syntax-ns#">
   <cc:Work>
    <dc:type rdf:resource="http://purl.org/dc/dcmitype/StillImage"/>
    <dc:date>2022-08-22T13:30:59.182162</dc:date>
    <dc:format>image/svg+xml</dc:format>
    <dc:creator>
     <cc:Agent>
      <dc:title>Matplotlib v3.5.1, https://matplotlib.org/</dc:title>
     </cc:Agent>
    </dc:creator>
   </cc:Work>
  </rdf:RDF>
 </metadata>
 <defs>
  <style type="text/css">*{stroke-linejoin: round; stroke-linecap: butt}</style>
 </defs>
 <g id="figure_1">
  <g id="patch_1">
   <path d="M 0 329.194063 
L 611.2125 329.194063 
L 611.2125 0 
L 0 0 
z
" style="fill: #ffffff"/>
  </g>
  <g id="axes_1">
   <g id="patch_2">
    <path d="M 46.0125 294.118125 
L 604.0125 294.118125 
L 604.0125 22.318125 
L 46.0125 22.318125 
z
" style="fill: #ffffff"/>
   </g>
   <g id="PolyCollection_1">
    <defs>
     <path id="m0e7d6fa17e" d="M 46.0125 -35.075938 
L 46.0125 -61.589492 
L 47.668286 -58.612295 
L 49.324073 -60.171197 
L 50.979859 -56.435946 
L 52.635645 -53.746077 
L 54.291432 -50.212567 
L 55.947218 -51.912075 
L 57.603004 -51.105114 
L 59.258791 -53.25701 
L 60.914577 -50.982847 
L 62.570364 -52.199402 
L 64.22615 -49.705159 
L 65.881936 -48.965445 
L 67.537723 -45.896549 
L 69.193509 -46.422296 
L 70.849295 -47.626624 
L 72.505082 -48.788158 
L 74.160868 -48.256298 
L 75.816654 -49.069372 
L 77.472441 -48.127918 
L 79.128227 -50.23702 
L 80.784013 -49.393379 
L 82.4398 -50.426533 
L 84.095586 -49.014352 
L 85.751372 -50.463214 
L 87.407159 -48.231845 
L 89.062945 -50.261473 
L 90.718731 -49.613459 
L 92.374518 -48.910425 
L 94.030304 -48.672005 
L 95.686091 -51.068434 
L 97.341877 -49.063259 
L 98.997663 -50.67718 
L 100.65345 -53.654377 
L 102.309236 -55.787932 
L 103.965022 -54.767005 
L 105.620809 -54.846478 
L 107.276595 -52.058795 
L 108.932381 -53.214216 
L 110.588168 -49.968033 
L 112.243954 -50.212567 
L 113.89974 -49.576779 
L 115.555527 -55.415019 
L 117.211313 -53.067496 
L 118.867099 -53.794984 
L 120.522886 -60.831438 
L 122.178672 -55.885746 
L 123.834458 -53.34871 
L 125.490245 -52.578429 
L 127.146031 -51.251834 
L 128.801818 -53.079723 
L 130.457604 -50.817787 
L 132.11339 -51.783695 
L 133.769177 -50.023053 
L 135.424963 -51.294628 
L 137.080749 -49.8152 
L 138.736536 -50.7322 
L 140.392322 -49.185526 
L 142.048108 -51.832602 
L 143.703895 -49.564553 
L 145.359681 -50.915601 
L 147.015467 -49.644026 
L 148.671254 -51.043981 
L 150.32704 -48.849292 
L 151.982826 -51.594181 
L 153.638613 -50.579367 
L 155.294399 -55.396679 
L 156.950185 -53.691057 
L 158.605972 -56.906674 
L 160.261758 -54.883158 
L 161.917545 -54.577491 
L 163.573331 -52.816849 
L 165.229117 -54.467451 
L 166.884904 -54.387978 
L 168.54069 -56.026353 
L 170.196476 -54.650851 
L 171.852263 -57.206227 
L 173.508049 -57.297927 
L 175.163835 -60.134517 
L 176.819622 -60.25067 
L 178.475408 -59.841077 
L 180.131194 -61.937952 
L 181.786981 -59.60877 
L 183.442767 -61.106538 
L 185.098553 -64.841788 
L 186.75434 -64.083734 
L 188.410126 -66.58409 
L 190.065912 -64.016488 
L 191.721699 -64.890695 
L 193.377485 -63.729161 
L 195.033272 -70.013674 
L 196.689058 -80.430805 
L 198.344844 -74.922686 
L 200.000631 -73.076457 
L 201.656417 -65.294176 
L 203.312203 -60.849778 
L 204.96799 -66.791944 
L 206.623776 -63.778067 
L 208.279562 -62.952767 
L 209.935349 -55.745139 
L 211.591135 -56.967807 
L 213.246921 -56.001899 
L 214.902708 -54.467451 
L 216.558494 -55.543399 
L 218.21428 -61.956292 
L 219.870067 -62.549286 
L 221.525853 -66.938664 
L 223.181639 -69.82416 
L 224.837426 -73.736698 
L 226.493212 -64.768428 
L 228.148999 -64.114301 
L 229.804785 -73.724471 
L 231.460571 -96.832895 
L 233.116358 -94.100232 
L 234.772144 -98.941997 
L 236.42793 -85.792204 
L 238.083717 -76.023087 
L 239.739503 -66.315103 
L 241.395289 -65.275836 
L 243.051076 -68.699306 
L 244.706862 -67.268784 
L 246.362648 -66.822511 
L 248.018435 -69.64076 
L 249.674221 -68.693193 
L 251.330007 -69.854727 
L 252.985794 -68.742099 
L 254.64158 -72.006623 
L 256.297366 -72.948077 
L 257.953153 -78.945263 
L 259.608939 -79.691091 
L 261.264726 -82.05084 
L 262.920512 -86.611391 
L 264.576298 -88.103046 
L 266.232085 -86.018397 
L 267.887871 -95.335127 
L 269.543657 -108.796701 
L 271.199444 -111.150337 
L 272.85523 -116.334449 
L 274.511016 -112.305758 
L 276.166803 -98.838071 
L 277.822589 -90.426115 
L 279.478375 -74.837099 
L 281.134162 -71.034602 
L 282.789948 -66.883644 
L 284.445734 -65.966643 
L 286.101521 -68.063519 
L 287.757307 -68.998859 
L 289.413093 -68.766553 
L 291.06888 -71.181322 
L 292.724666 -66.45571 
L 294.380453 -68.100199 
L 296.036239 -69.029426 
L 297.692025 -72.838037 
L 299.347812 -75.656286 
L 301.003598 -78.413403 
L 302.659384 -79.147003 
L 304.315171 -81.133839 
L 305.970957 -82.209787 
L 307.626743 -86.684751 
L 309.28253 -87.265519 
L 310.938316 -91.49595 
L 312.594102 -99.816205 
L 314.249889 -114.145873 
L 315.905675 -114.531014 
L 317.561461 -108.515487 
L 319.217248 -95.891441 
L 320.873034 -68.045178 
L 322.52882 -61.528358 
L 324.184607 -57.395741 
L 325.840393 -65.165795 
L 327.49618 -88.848873 
L 329.151966 -84.178282 
L 330.807752 -64.548348 
L 332.463539 -65.330856 
L 334.119325 -72.281723 
L 335.775111 -177.015459 
L 337.430898 -71.823222 
L 339.086684 -74.317465 
L 340.74247 -76.396001 
L 342.398257 -69.628533 
L 344.054043 -69.62242 
L 345.709829 -72.33063 
L 347.365616 -75.503453 
L 349.021402 -71.126302 
L 350.677188 -69.12724 
L 352.332975 -65.465349 
L 353.988761 -66.559637 
L 355.644547 -65.434782 
L 357.300334 -69.95254 
L 358.95612 -69.21894 
L 360.611907 -64.432195 
L 362.267693 -58.826262 
L 363.923479 -59.694356 
L 365.579266 -58.074321 
L 367.235052 -61.008725 
L 368.890838 -63.521307 
L 370.546625 -66.608544 
L 372.202411 -67.690605 
L 373.858197 -71.162982 
L 375.513984 -69.87918 
L 377.16977 -75.925273 
L 378.825556 -85.60269 
L 380.481343 -88.249766 
L 382.137129 -79.642184 
L 383.792915 -77.447495 
L 385.448702 -73.333217 
L 387.104488 -72.740223 
L 388.760274 -78.303363 
L 390.416061 -85.498763 
L 392.071847 -82.08752 
L 393.727634 -79.935624 
L 395.38342 -128.665055 
L 397.039206 -151.003198 
L 398.694993 -115.344088 
L 400.350779 -87.204385 
L 402.006565 -76.603854 
L 403.662352 -65.318629 
L 405.318138 -62.769366 
L 406.973924 -73.168157 
L 408.629711 -70.411041 
L 410.285497 -74.072931 
L 411.941283 -72.245043 
L 413.59707 -68.454772 
L 415.252856 -66.376237 
L 416.908642 -71.052942 
L 418.564429 -74.494752 
L 420.220215 -90.248828 
L 421.876001 -78.90247 
L 423.531788 -81.898006 
L 425.187574 -81.366146 
L 426.843361 -79.831697 
L 428.499147 -83.939862 
L 430.154933 -85.865564 
L 431.81072 -95.39626 
L 433.466506 -105.923431 
L 435.122292 -163.394938 
L 436.778079 -293.93308 
L 438.433865 -257.344742 
L 440.089651 -128.518335 
L 441.745438 -87.473372 
L 443.401224 -81.787966 
L 445.05701 -66.798057 
L 446.712797 -61.247145 
L 448.368583 -56.594893 
L 450.024369 -56.448173 
L 451.680156 -56.814973 
L 453.335942 -60.21399 
L 454.991728 -62.066332 
L 456.647515 -62.971107 
L 458.303301 -62.103012 
L 459.959088 -63.576327 
L 461.614874 -65.019075 
L 463.27066 -64.951829 
L 464.926447 -60.978158 
L 466.582233 -66.895871 
L 468.238019 -62.286412 
L 469.893806 -63.961468 
L 471.549592 -64.664502 
L 473.205378 -66.486277 
L 474.861165 -67.629471 
L 476.516951 -70.765615 
L 478.172737 -70.044241 
L 479.828524 -65.86883 
L 481.48431 -61.638398 
L 483.140096 -62.164146 
L 484.795883 -62.86718 
L 486.451669 -58.710109 
L 488.107455 -59.070796 
L 489.763242 -63.857541 
L 491.419028 -91.581536 
L 493.074815 -107.720753 
L 494.730601 -64.340495 
L 496.386387 -59.896097 
L 498.042174 -60.800871 
L 499.69796 -59.193063 
L 501.353746 -56.411493 
L 503.009533 -61.681192 
L 504.665319 -74.317465 
L 506.321105 -89.185107 
L 507.976892 -110.84467 
L 509.632678 -98.092243 
L 511.288464 -75.307826 
L 512.944251 -126.079112 
L 514.600037 -113.124945 
L 516.255823 -98.630217 
L 517.91161 -87.137138 
L 519.567396 -72.031076 
L 521.223182 -67.164858 
L 522.878969 -89.423527 
L 524.534755 -96.087068 
L 526.190542 -78.119962 
L 527.846328 -66.174497 
L 529.502114 -73.901758 
L 531.157901 -81.543433 
L 532.813687 -64.835675 
L 534.469473 -60.446297 
L 536.12526 -60.189537 
L 537.781046 -62.714346 
L 539.436832 -70.600554 
L 541.092619 -74.335805 
L 542.748405 -115.503035 
L 544.404191 -137.101464 
L 546.059978 -150.006724 
L 547.715764 -163.193198 
L 549.37155 -165.950314 
L 551.027337 -146.369287 
L 552.683123 -142.872456 
L 554.338909 -145.757953 
L 555.994696 -174.67405 
L 557.650482 -175.02251 
L 559.306269 -154.652862 
L 560.962055 -139.56514 
L 562.617841 -115.680321 
L 564.273628 -79.764451 
L 565.929414 -70.038127 
L 567.5852 -94.479259 
L 569.240987 -77.245755 
L 570.896773 -67.317691 
L 572.552559 -59.474276 
L 574.208346 -58.019301 
L 575.864132 -78.034376 
L 577.519918 -89.943161 
L 579.175705 -77.563648 
L 580.831491 -63.833087 
L 582.487277 -65.202476 
L 584.143064 -72.067756 
L 585.79885 -74.543659 
L 587.454636 -84.239415 
L 589.110423 -94.234726 
L 590.766209 -105.464931 
L 592.421996 -163.339918 
L 594.077782 -173.695915 
L 595.733568 -178.342053 
L 597.389355 -185.659721 
L 599.045141 -148.490616 
L 600.700927 -164.110199 
L 600.700927 -35.075938 
L 600.700927 -35.075938 
L 599.045141 -35.075938 
L 597.389355 -35.075938 
L 595.733568 -35.075938 
L 594.077782 -35.075938 
L 592.421996 -35.075938 
L 590.766209 -35.075938 
L 589.110423 -35.075938 
L 587.454636 -35.075938 
L 585.79885 -35.075938 
L 584.143064 -35.075938 
L 582.487277 -35.075938 
L 580.831491 -35.075938 
L 579.175705 -35.075938 
L 577.519918 -35.075938 
L 575.864132 -35.075938 
L 574.208346 -35.075938 
L 572.552559 -35.075938 
L 570.896773 -35.075938 
L 569.240987 -35.075938 
L 567.5852 -35.075938 
L 565.929414 -35.075938 
L 564.273628 -35.075938 
L 562.617841 -35.075938 
L 560.962055 -35.075938 
L 559.306269 -35.075938 
L 557.650482 -35.075938 
L 555.994696 -35.075938 
L 554.338909 -35.075938 
L 552.683123 -35.075938 
L 551.027337 -35.075938 
L 549.37155 -35.075938 
L 547.715764 -35.075938 
L 546.059978 -35.075938 
L 544.404191 -35.075938 
L 542.748405 -35.075938 
L 541.092619 -35.075938 
L 539.436832 -35.075938 
L 537.781046 -35.075938 
L 536.12526 -35.075938 
L 534.469473 -35.075938 
L 532.813687 -35.075938 
L 531.157901 -35.075938 
L 529.502114 -35.075938 
L 527.846328 -35.075938 
L 526.190542 -35.075938 
L 524.534755 -35.075938 
L 522.878969 -35.075938 
L 521.223182 -35.075938 
L 519.567396 -35.075938 
L 517.91161 -35.075938 
L 516.255823 -35.075938 
L 514.600037 -35.075938 
L 512.944251 -35.075938 
L 511.288464 -35.075938 
L 509.632678 -35.075938 
L 507.976892 -35.075938 
L 506.321105 -35.075938 
L 504.665319 -35.075938 
L 503.009533 -35.075938 
L 501.353746 -35.075938 
L 499.69796 -35.075938 
L 498.042174 -35.075938 
L 496.386387 -35.075938 
L 494.730601 -35.075938 
L 493.074815 -35.075938 
L 491.419028 -35.075938 
L 489.763242 -35.075938 
L 488.107455 -35.075938 
L 486.451669 -35.075938 
L 484.795883 -35.075938 
L 483.140096 -35.075938 
L 481.48431 -35.075938 
L 479.828524 -35.075938 
L 478.172737 -35.075938 
L 476.516951 -35.075938 
L 474.861165 -35.075938 
L 473.205378 -35.075938 
L 471.549592 -35.075938 
L 469.893806 -35.075938 
L 468.238019 -35.075938 
L 466.582233 -35.075938 
L 464.926447 -35.075938 
L 463.27066 -35.075938 
L 461.614874 -35.075938 
L 459.959088 -35.075938 
L 458.303301 -35.075938 
L 456.647515 -35.075938 
L 454.991728 -35.075938 
L 453.335942 -35.075938 
L 451.680156 -35.075938 
L 450.024369 -35.075938 
L 448.368583 -35.075938 
L 446.712797 -35.075938 
L 445.05701 -35.075938 
L 443.401224 -35.075938 
L 441.745438 -35.075938 
L 440.089651 -35.075938 
L 438.433865 -35.075938 
L 436.778079 -35.075938 
L 435.122292 -35.075938 
L 433.466506 -35.075938 
L 431.81072 -35.075938 
L 430.154933 -35.075938 
L 428.499147 -35.075938 
L 426.843361 -35.075938 
L 425.187574 -35.075938 
L 423.531788 -35.075938 
L 421.876001 -35.075938 
L 420.220215 -35.075938 
L 418.564429 -35.075938 
L 416.908642 -35.075938 
L 415.252856 -35.075938 
L 413.59707 -35.075938 
L 411.941283 -35.075938 
L 410.285497 -35.075938 
L 408.629711 -35.075938 
L 406.973924 -35.075938 
L 405.318138 -35.075938 
L 403.662352 -35.075938 
L 402.006565 -35.075938 
L 400.350779 -35.075938 
L 398.694993 -35.075938 
L 397.039206 -35.075938 
L 395.38342 -35.075938 
L 393.727634 -35.075938 
L 392.071847 -35.075938 
L 390.416061 -35.075938 
L 388.760274 -35.075938 
L 387.104488 -35.075938 
L 385.448702 -35.075938 
L 383.792915 -35.075938 
L 382.137129 -35.075938 
L 380.481343 -35.075938 
L 378.825556 -35.075938 
L 377.16977 -35.075938 
L 375.513984 -35.075938 
L 373.858197 -35.075938 
L 372.202411 -35.075938 
L 370.546625 -35.075938 
L 368.890838 -35.075938 
L 367.235052 -35.075938 
L 365.579266 -35.075938 
L 363.923479 -35.075938 
L 362.267693 -35.075938 
L 360.611907 -35.075938 
L 358.95612 -35.075938 
L 357.300334 -35.075938 
L 355.644547 -35.075938 
L 353.988761 -35.075938 
L 352.332975 -35.075938 
L 350.677188 -35.075938 
L 349.021402 -35.075938 
L 347.365616 -35.075938 
L 345.709829 -35.075938 
L 344.054043 -35.075938 
L 342.398257 -35.075938 
L 340.74247 -35.075938 
L 339.086684 -35.075938 
L 337.430898 -35.075938 
L 335.775111 -35.075938 
L 334.119325 -35.075938 
L 332.463539 -35.075938 
L 330.807752 -35.075938 
L 329.151966 -35.075938 
L 327.49618 -35.075938 
L 325.840393 -35.075938 
L 324.184607 -35.075938 
L 322.52882 -35.075938 
L 320.873034 -35.075938 
L 319.217248 -35.075938 
L 317.561461 -35.075938 
L 315.905675 -35.075938 
L 314.249889 -35.075938 
L 312.594102 -35.075938 
L 310.938316 -35.075938 
L 309.28253 -35.075938 
L 307.626743 -35.075938 
L 305.970957 -35.075938 
L 304.315171 -35.075938 
L 302.659384 -35.075938 
L 301.003598 -35.075938 
L 299.347812 -35.075938 
L 297.692025 -35.075938 
L 296.036239 -35.075938 
L 294.380453 -35.075938 
L 292.724666 -35.075938 
L 291.06888 -35.075938 
L 289.413093 -35.075938 
L 287.757307 -35.075938 
L 286.101521 -35.075938 
L 284.445734 -35.075938 
L 282.789948 -35.075938 
L 281.134162 -35.075938 
L 279.478375 -35.075938 
L 277.822589 -35.075938 
L 276.166803 -35.075938 
L 274.511016 -35.075938 
L 272.85523 -35.075938 
L 271.199444 -35.075938 
L 269.543657 -35.075938 
L 267.887871 -35.075938 
L 266.232085 -35.075938 
L 264.576298 -35.075938 
L 262.920512 -35.075938 
L 261.264726 -35.075938 
L 259.608939 -35.075938 
L 257.953153 -35.075938 
L 256.297366 -35.075938 
L 254.64158 -35.075938 
L 252.985794 -35.075938 
L 251.330007 -35.075938 
L 249.674221 -35.075938 
L 248.018435 -35.075938 
L 246.362648 -35.075938 
L 244.706862 -35.075938 
L 243.051076 -35.075938 
L 241.395289 -35.075938 
L 239.739503 -35.075938 
L 238.083717 -35.075938 
L 236.42793 -35.075938 
L 234.772144 -35.075938 
L 233.116358 -35.075938 
L 231.460571 -35.075938 
L 229.804785 -35.075938 
L 228.148999 -35.075938 
L 226.493212 -35.075938 
L 224.837426 -35.075938 
L 223.181639 -35.075938 
L 221.525853 -35.075938 
L 219.870067 -35.075938 
L 218.21428 -35.075938 
L 216.558494 -35.075938 
L 214.902708 -35.075938 
L 213.246921 -35.075938 
L 211.591135 -35.075938 
L 209.935349 -35.075938 
L 208.279562 -35.075938 
L 206.623776 -35.075938 
L 204.96799 -35.075938 
L 203.312203 -35.075938 
L 201.656417 -35.075938 
L 200.000631 -35.075938 
L 198.344844 -35.075938 
L 196.689058 -35.075938 
L 195.033272 -35.075938 
L 193.377485 -35.075938 
L 191.721699 -35.075938 
L 190.065912 -35.075938 
L 188.410126 -35.075938 
L 186.75434 -35.075938 
L 185.098553 -35.075938 
L 183.442767 -35.075938 
L 181.786981 -35.075938 
L 180.131194 -35.075938 
L 178.475408 -35.075938 
L 176.819622 -35.075938 
L 175.163835 -35.075938 
L 173.508049 -35.075938 
L 171.852263 -35.075938 
L 170.196476 -35.075938 
L 168.54069 -35.075938 
L 166.884904 -35.075938 
L 165.229117 -35.075938 
L 163.573331 -35.075938 
L 161.917545 -35.075938 
L 160.261758 -35.075938 
L 158.605972 -35.075938 
L 156.950185 -35.075938 
L 155.294399 -35.075938 
L 153.638613 -35.075938 
L 151.982826 -35.075938 
L 150.32704 -35.075938 
L 148.671254 -35.075938 
L 147.015467 -35.075938 
L 145.359681 -35.075938 
L 143.703895 -35.075938 
L 142.048108 -35.075938 
L 140.392322 -35.075938 
L 138.736536 -35.075938 
L 137.080749 -35.075938 
L 135.424963 -35.075938 
L 133.769177 -35.075938 
L 132.11339 -35.075938 
L 130.457604 -35.075938 
L 128.801818 -35.075938 
L 127.146031 -35.075938 
L 125.490245 -35.075938 
L 123.834458 -35.075938 
L 122.178672 -35.075938 
L 120.522886 -35.075938 
L 118.867099 -35.075938 
L 117.211313 -35.075938 
L 115.555527 -35.075938 
L 113.89974 -35.075938 
L 112.243954 -35.075938 
L 110.588168 -35.075938 
L 108.932381 -35.075938 
L 107.276595 -35.075938 
L 105.620809 -35.075938 
L 103.965022 -35.075938 
L 102.309236 -35.075938 
L 100.65345 -35.075938 
L 98.997663 -35.075938 
L 97.341877 -35.075938 
L 95.686091 -35.075938 
L 94.030304 -35.075938 
L 92.374518 -35.075938 
L 90.718731 -35.075938 
L 89.062945 -35.075938 
L 87.407159 -35.075938 
L 85.751372 -35.075938 
L 84.095586 -35.075938 
L 82.4398 -35.075938 
L 80.784013 -35.075938 
L 79.128227 -35.075938 
L 77.472441 -35.075938 
L 75.816654 -35.075938 
L 74.160868 -35.075938 
L 72.505082 -35.075938 
L 70.849295 -35.075938 
L 69.193509 -35.075938 
L 67.537723 -35.075938 
L 65.881936 -35.075938 
L 64.22615 -35.075938 
L 62.570364 -35.075938 
L 60.914577 -35.075938 
L 59.258791 -35.075938 
L 57.603004 -35.075938 
L 55.947218 -35.075938 
L 54.291432 -35.075938 
L 52.635645 -35.075938 
L 50.979859 -35.075938 
L 49.324073 -35.075938 
L 47.668286 -35.075938 
L 46.0125 -35.075938 
z
" style="stroke: #9acd32"/>
    </defs>
    <g clip-path="url(#pb51f5e0c76)">
     <use xlink:href="#m0e7d6fa17e" x="0" y="329.194063" style="fill: #9acd32; stroke: #9acd32"/>
    </g>
   </g>
   <g id="PolyCollection_2">
    <defs>
     <path id="md1f8e36614" d="M 46.0125 -35.075938 
L 46.0125 -48.727025 
L 47.668286 -46.495656 
L 49.324073 -45.645902 
L 50.979859 -45.260761 
L 52.635645 -42.363038 
L 54.291432 -41.036444 
L 55.947218 -41.476604 
L 57.603004 -42.173525 
L 59.258791 -42.699272 
L 60.914577 -41.831178 
L 62.570364 -41.464377 
L 64.22615 -39.856569 
L 65.881936 -39.318595 
L 67.537723 -38.841755 
L 69.193509 -38.181514 
L 70.849295 -38.939568 
L 72.505082 -39.679282 
L 74.160868 -39.202442 
L 75.816654 -39.367502 
L 77.472441 -39.685396 
L 79.128227 -41.354337 
L 80.784013 -41.274864 
L 82.4398 -41.574418 
L 84.095586 -40.60851 
L 85.751372 -40.363976 
L 87.407159 -39.801549 
L 89.062945 -39.459202 
L 90.718731 -38.933455 
L 92.374518 -39.031268 
L 94.030304 -39.575356 
L 95.686091 -40.834703 
L 97.341877 -40.162236 
L 98.997663 -39.459202 
L 100.65345 -41.818951 
L 102.309236 -43.983073 
L 103.965022 -43.77522 
L 105.620809 -43.249473 
L 107.276595 -41.378791 
L 108.932381 -40.046083 
L 110.588168 -39.226895 
L 112.243954 -38.664468 
L 113.89974 -39.826002 
L 115.555527 -43.053846 
L 117.211313 -41.873971 
L 118.867099 -41.757818 
L 120.522886 -41.922878 
L 122.178672 -40.969197 
L 123.834458 -39.526449 
L 125.490245 -39.642602 
L 127.146031 -39.550902 
L 128.801818 -39.618149 
L 130.457604 -39.177988 
L 132.11339 -38.603335 
L 133.769177 -38.768395 
L 135.424963 -38.529974 
L 137.080749 -38.413821 
L 138.736536 -38.841755 
L 140.392322 -39.734302 
L 142.048108 -41.01199 
L 143.703895 -40.082763 
L 145.359681 -39.740416 
L 147.015467 -39.862682 
L 148.671254 -40.46179 
L 150.32704 -40.125556 
L 151.982826 -40.510696 
L 153.638613 -40.412883 
L 155.294399 -44.545501 
L 156.950185 -43.414533 
L 158.605972 -44.368214 
L 160.261758 -43.897487 
L 161.917545 -41.666118 
L 163.573331 -40.853044 
L 165.229117 -40.620737 
L 166.884904 -40.99365 
L 168.54069 -41.146484 
L 170.196476 -41.770044 
L 171.852263 -42.161298 
L 173.508049 -43.218906 
L 175.163835 -44.612747 
L 176.819622 -45.994362 
L 178.475408 -46.104402 
L 180.131194 -47.596057 
L 181.786981 -46.147196 
L 183.442767 -47.810024 
L 185.098553 -49.668479 
L 186.75434 -50.065846 
L 188.410126 -51.575841 
L 190.065912 -50.62216 
L 191.721699 -49.723499 
L 193.377485 -49.913013 
L 195.033272 -53.07361 
L 196.689058 -62.323093 
L 198.344844 -56.246433 
L 200.000631 -55.781819 
L 201.656417 -48.506945 
L 203.312203 -46.61181 
L 204.96799 -45.114041 
L 206.623776 -43.659066 
L 208.279562 -42.625912 
L 209.935349 -41.238184 
L 211.591135 -40.859157 
L 213.246921 -40.840817 
L 214.902708 -40.327296 
L 216.558494 -40.86527 
L 218.21428 -46.605696 
L 219.870067 -49.069372 
L 221.525853 -50.933941 
L 223.181639 -54.656965 
L 224.837426 -57.108414 
L 226.493212 -51.264061 
L 228.148999 -50.139207 
L 229.804785 -60.28735 
L 231.460571 -79.30595 
L 233.116358 -77.300775 
L 234.772144 -80.669225 
L 236.42793 -67.653925 
L 238.083717 -58.239382 
L 239.739503 -49.92524 
L 241.395289 -49.118279 
L 243.051076 -48.366338 
L 244.706862 -48.256298 
L 246.362648 -48.940992 
L 248.018435 -49.644026 
L 249.674221 -49.735726 
L 251.330007 -49.271112 
L 252.985794 -48.531398 
L 254.64158 -49.680706 
L 256.297366 -49.864106 
L 257.953153 -51.783695 
L 259.608939 -53.030816 
L 261.264726 -54.180124 
L 262.920512 -57.725861 
L 264.576298 -58.441122 
L 266.232085 -59.75549 
L 267.887871 -63.820861 
L 269.543657 -71.621482 
L 271.199444 -73.06423 
L 272.85523 -83.035087 
L 274.511016 -75.124426 
L 276.166803 -67.770078 
L 277.822589 -60.727511 
L 279.478375 -50.683294 
L 281.134162 -46.599583 
L 282.789948 -43.66518 
L 284.445734 -41.935105 
L 286.101521 -43.383966 
L 287.757307 -43.451213 
L 289.413093 -43.377853 
L 291.06888 -43.090526 
L 292.724666 -42.632025 
L 294.380453 -43.561253 
L 296.036239 -45.694809 
L 297.692025 -50.793334 
L 299.347812 -52.144382 
L 301.003598 -51.490255 
L 302.659384 -52.003775 
L 304.315171 -52.847416 
L 305.970957 -54.864818 
L 307.626743 -54.290164 
L 309.28253 -56.84554 
L 310.938316 -60.244557 
L 312.594102 -69.885294 
L 314.249889 -79.257044 
L 315.905675 -79.15923 
L 317.561461 -65.667089 
L 319.217248 -52.608996 
L 320.873034 -45.016228 
L 322.52882 -39.477542 
L 324.184607 -39.575356 
L 325.840393 -40.418996 
L 327.49618 -41.617211 
L 329.151966 -46.935817 
L 330.807752 -39.783209 
L 332.463539 -40.082763 
L 334.119325 -40.657417 
L 335.775111 -41.513284 
L 337.430898 -44.313194 
L 339.086684 -46.636263 
L 340.74247 -46.990837 
L 342.398257 -45.658129 
L 344.054043 -46.446749 
L 345.709829 -48.341885 
L 347.365616 -47.559377 
L 349.021402 -46.067722 
L 350.677188 -44.14202 
L 352.332975 -43.017166 
L 353.988761 -42.876559 
L 355.644547 -43.9953 
L 357.300334 -46.801323 
L 358.95612 -47.504357 
L 360.611907 -41.580531 
L 362.267693 -39.777096 
L 363.923479 -39.312482 
L 365.579266 -38.976248 
L 367.235052 -39.135195 
L 368.890838 -38.823415 
L 370.546625 -39.116855 
L 372.202411 -39.514222 
L 373.858197 -40.79191 
L 375.513984 -41.708911 
L 377.16977 -45.340235 
L 378.825556 -49.913013 
L 380.481343 -50.5488 
L 382.137129 -47.589944 
L 383.792915 -45.707035 
L 385.448702 -45.315781 
L 387.104488 -44.447687 
L 388.760274 -46.428409 
L 390.416061 -48.451925 
L 392.071847 -45.535862 
L 393.727634 -46.116629 
L 395.38342 -55.622872 
L 397.039206 -57.389627 
L 398.694993 -53.617697 
L 400.350779 -47.137557 
L 402.006565 -43.92194 
L 403.662352 -41.238184 
L 405.318138 -40.987537 
L 406.973924 -41.250411 
L 408.629711 -41.519398 
L 410.285497 -41.403244 
L 411.941283 -41.837291 
L 413.59707 -41.268751 
L 415.252856 -42.265225 
L 416.908642 -45.609222 
L 418.564429 -49.240546 
L 420.220215 -50.683294 
L 421.876001 -52.443936 
L 423.531788 -55.121578 
L 425.187574 -55.335545 
L 426.843361 -53.721624 
L 428.499147 -58.239382 
L 430.154933 -57.823675 
L 431.81072 -66.74915 
L 433.466506 -63.221753 
L 435.122292 -75.093859 
L 436.778079 -86.721431 
L 438.433865 -81.231652 
L 440.089651 -54.852591 
L 441.745438 -46.263349 
L 443.401224 -40.131669 
L 445.05701 -39.294142 
L 446.712797 -39.336935 
L 448.368583 -38.768395 
L 450.024369 -39.025155 
L 451.680156 -39.923816 
L 453.335942 -39.557015 
L 454.991728 -41.04867 
L 456.647515 -42.124618 
L 458.303301 -41.568304 
L 459.959088 -43.567366 
L 461.614874 -44.667767 
L 463.27066 -43.94028 
L 464.926447 -41.947331 
L 466.582233 -42.039031 
L 468.238019 -42.680932 
L 469.893806 -42.118505 
L 471.549592 -42.448625 
L 473.205378 -42.925466 
L 474.861165 -44.19704 
L 476.516951 -45.450275 
L 478.172737 -45.762055 
L 479.828524 -44.643314 
L 481.48431 -41.12203 
L 483.140096 -39.911589 
L 484.795883 -41.598871 
L 486.451669 -38.688921 
L 488.107455 -40.082763 
L 489.763242 -39.581469 
L 491.419028 -42.711499 
L 493.074815 -46.251122 
L 494.730601 -42.094051 
L 496.386387 -40.449563 
L 498.042174 -40.981424 
L 499.69796 -41.397131 
L 501.353746 -39.581469 
L 503.009533 -40.785797 
L 504.665319 -44.502707 
L 506.321105 -47.755004 
L 507.976892 -50.811674 
L 509.632678 -45.921002 
L 511.288464 -41.452151 
L 512.944251 -49.845766 
L 514.600037 -47.828364 
L 516.255823 -46.031042 
L 517.91161 -43.860807 
L 519.567396 -42.760406 
L 521.223182 -41.928991 
L 522.878969 -43.304493 
L 524.534755 -44.802261 
L 526.190542 -44.692221 
L 527.846328 -42.149072 
L 529.502114 -42.827652 
L 531.157901 -46.281689 
L 532.813687 -44.710561 
L 534.469473 -43.451213 
L 536.12526 -42.460852 
L 537.781046 -41.372677 
L 539.436832 -43.946393 
L 541.092619 -46.220556 
L 542.748405 -51.575841 
L 544.404191 -53.794984 
L 546.059978 -55.207165 
L 547.715764 -58.593955 
L 549.37155 -58.477802 
L 551.027337 -53.88057 
L 552.683123 -51.606408 
L 554.338909 -51.386328 
L 555.994696 -54.271824 
L 557.650482 -53.672717 
L 559.306269 -49.968033 
L 560.962055 -47.944518 
L 562.617841 -44.618861 
L 564.273628 -40.577943 
L 565.929414 -39.936043 
L 567.5852 -42.570892 
L 569.240987 -41.941218 
L 570.896773 -41.311544 
L 572.552559 -41.818951 
L 574.208346 -43.506233 
L 575.864132 -44.429347 
L 577.519918 -45.578655 
L 579.175705 -44.300967 
L 580.831491 -42.650365 
L 582.487277 -43.799673 
L 584.143064 -46.734076 
L 585.79885 -45.835415 
L 587.454636 -48.109578 
L 589.110423 -47.40043 
L 590.766209 -50.267587 
L 592.421996 -62.598193 
L 594.077782 -64.316041 
L 595.733568 -58.618409 
L 597.389355 -59.669903 
L 599.045141 -53.049156 
L 600.700927 -55.463925 
L 600.700927 -35.075938 
L 600.700927 -35.075938 
L 599.045141 -35.075938 
L 597.389355 -35.075938 
L 595.733568 -35.075938 
L 594.077782 -35.075938 
L 592.421996 -35.075938 
L 590.766209 -35.075938 
L 589.110423 -35.075938 
L 587.454636 -35.075938 
L 585.79885 -35.075938 
L 584.143064 -35.075938 
L 582.487277 -35.075938 
L 580.831491 -35.075938 
L 579.175705 -35.075938 
L 577.519918 -35.075938 
L 575.864132 -35.075938 
L 574.208346 -35.075938 
L 572.552559 -35.075938 
L 570.896773 -35.075938 
L 569.240987 -35.075938 
L 567.5852 -35.075938 
L 565.929414 -35.075938 
L 564.273628 -35.075938 
L 562.617841 -35.075938 
L 560.962055 -35.075938 
L 559.306269 -35.075938 
L 557.650482 -35.075938 
L 555.994696 -35.075938 
L 554.338909 -35.075938 
L 552.683123 -35.075938 
L 551.027337 -35.075938 
L 549.37155 -35.075938 
L 547.715764 -35.075938 
L 546.059978 -35.075938 
L 544.404191 -35.075938 
L 542.748405 -35.075938 
L 541.092619 -35.075938 
L 539.436832 -35.075938 
L 537.781046 -35.075938 
L 536.12526 -35.075938 
L 534.469473 -35.075938 
L 532.813687 -35.075938 
L 531.157901 -35.075938 
L 529.502114 -35.075938 
L 527.846328 -35.075938 
L 526.190542 -35.075938 
L 524.534755 -35.075938 
L 522.878969 -35.075938 
L 521.223182 -35.075938 
L 519.567396 -35.075938 
L 517.91161 -35.075938 
L 516.255823 -35.075938 
L 514.600037 -35.075938 
L 512.944251 -35.075938 
L 511.288464 -35.075938 
L 509.632678 -35.075938 
L 507.976892 -35.075938 
L 506.321105 -35.075938 
L 504.665319 -35.075938 
L 503.009533 -35.075938 
L 501.353746 -35.075938 
L 499.69796 -35.075938 
L 498.042174 -35.075938 
L 496.386387 -35.075938 
L 494.730601 -35.075938 
L 493.074815 -35.075938 
L 491.419028 -35.075938 
L 489.763242 -35.075938 
L 488.107455 -35.075938 
L 486.451669 -35.075938 
L 484.795883 -35.075938 
L 483.140096 -35.075938 
L 481.48431 -35.075938 
L 479.828524 -35.075938 
L 478.172737 -35.075938 
L 476.516951 -35.075938 
L 474.861165 -35.075938 
L 473.205378 -35.075938 
L 471.549592 -35.075938 
L 469.893806 -35.075938 
L 468.238019 -35.075938 
L 466.582233 -35.075938 
L 464.926447 -35.075938 
L 463.27066 -35.075938 
L 461.614874 -35.075938 
L 459.959088 -35.075938 
L 458.303301 -35.075938 
L 456.647515 -35.075938 
L 454.991728 -35.075938 
L 453.335942 -35.075938 
L 451.680156 -35.075938 
L 450.024369 -35.075938 
L 448.368583 -35.075938 
L 446.712797 -35.075938 
L 445.05701 -35.075938 
L 443.401224 -35.075938 
L 441.745438 -35.075938 
L 440.089651 -35.075938 
L 438.433865 -35.075938 
L 436.778079 -35.075938 
L 435.122292 -35.075938 
L 433.466506 -35.075938 
L 431.81072 -35.075938 
L 430.154933 -35.075938 
L 428.499147 -35.075938 
L 426.843361 -35.075938 
L 425.187574 -35.075938 
L 423.531788 -35.075938 
L 421.876001 -35.075938 
L 420.220215 -35.075938 
L 418.564429 -35.075938 
L 416.908642 -35.075938 
L 415.252856 -35.075938 
L 413.59707 -35.075938 
L 411.941283 -35.075938 
L 410.285497 -35.075938 
L 408.629711 -35.075938 
L 406.973924 -35.075938 
L 405.318138 -35.075938 
L 403.662352 -35.075938 
L 402.006565 -35.075938 
L 400.350779 -35.075938 
L 398.694993 -35.075938 
L 397.039206 -35.075938 
L 395.38342 -35.075938 
L 393.727634 -35.075938 
L 392.071847 -35.075938 
L 390.416061 -35.075938 
L 388.760274 -35.075938 
L 387.104488 -35.075938 
L 385.448702 -35.075938 
L 383.792915 -35.075938 
L 382.137129 -35.075938 
L 380.481343 -35.075938 
L 378.825556 -35.075938 
L 377.16977 -35.075938 
L 375.513984 -35.075938 
L 373.858197 -35.075938 
L 372.202411 -35.075938 
L 370.546625 -35.075938 
L 368.890838 -35.075938 
L 367.235052 -35.075938 
L 365.579266 -35.075938 
L 363.923479 -35.075938 
L 362.267693 -35.075938 
L 360.611907 -35.075938 
L 358.95612 -35.075938 
L 357.300334 -35.075938 
L 355.644547 -35.075938 
L 353.988761 -35.075938 
L 352.332975 -35.075938 
L 350.677188 -35.075938 
L 349.021402 -35.075938 
L 347.365616 -35.075938 
L 345.709829 -35.075938 
L 344.054043 -35.075938 
L 342.398257 -35.075938 
L 340.74247 -35.075938 
L 339.086684 -35.075938 
L 337.430898 -35.075938 
L 335.775111 -35.075938 
L 334.119325 -35.075938 
L 332.463539 -35.075938 
L 330.807752 -35.075938 
L 329.151966 -35.075938 
L 327.49618 -35.075938 
L 325.840393 -35.075938 
L 324.184607 -35.075938 
L 322.52882 -35.075938 
L 320.873034 -35.075938 
L 319.217248 -35.075938 
L 317.561461 -35.075938 
L 315.905675 -35.075938 
L 314.249889 -35.075938 
L 312.594102 -35.075938 
L 310.938316 -35.075938 
L 309.28253 -35.075938 
L 307.626743 -35.075938 
L 305.970957 -35.075938 
L 304.315171 -35.075938 
L 302.659384 -35.075938 
L 301.003598 -35.075938 
L 299.347812 -35.075938 
L 297.692025 -35.075938 
L 296.036239 -35.075938 
L 294.380453 -35.075938 
L 292.724666 -35.075938 
L 291.06888 -35.075938 
L 289.413093 -35.075938 
L 287.757307 -35.075938 
L 286.101521 -35.075938 
L 284.445734 -35.075938 
L 282.789948 -35.075938 
L 281.134162 -35.075938 
L 279.478375 -35.075938 
L 277.822589 -35.075938 
L 276.166803 -35.075938 
L 274.511016 -35.075938 
L 272.85523 -35.075938 
L 271.199444 -35.075938 
L 269.543657 -35.075938 
L 267.887871 -35.075938 
L 266.232085 -35.075938 
L 264.576298 -35.075938 
L 262.920512 -35.075938 
L 261.264726 -35.075938 
L 259.608939 -35.075938 
L 257.953153 -35.075938 
L 256.297366 -35.075938 
L 254.64158 -35.075938 
L 252.985794 -35.075938 
L 251.330007 -35.075938 
L 249.674221 -35.075938 
L 248.018435 -35.075938 
L 246.362648 -35.075938 
L 244.706862 -35.075938 
L 243.051076 -35.075938 
L 241.395289 -35.075938 
L 239.739503 -35.075938 
L 238.083717 -35.075938 
L 236.42793 -35.075938 
L 234.772144 -35.075938 
L 233.116358 -35.075938 
L 231.460571 -35.075938 
L 229.804785 -35.075938 
L 228.148999 -35.075938 
L 226.493212 -35.075938 
L 224.837426 -35.075938 
L 223.181639 -35.075938 
L 221.525853 -35.075938 
L 219.870067 -35.075938 
L 218.21428 -35.075938 
L 216.558494 -35.075938 
L 214.902708 -35.075938 
L 213.246921 -35.075938 
L 211.591135 -35.075938 
L 209.935349 -35.075938 
L 208.279562 -35.075938 
L 206.623776 -35.075938 
L 204.96799 -35.075938 
L 203.312203 -35.075938 
L 201.656417 -35.075938 
L 200.000631 -35.075938 
L 198.344844 -35.075938 
L 196.689058 -35.075938 
L 195.033272 -35.075938 
L 193.377485 -35.075938 
L 191.721699 -35.075938 
L 190.065912 -35.075938 
L 188.410126 -35.075938 
L 186.75434 -35.075938 
L 185.098553 -35.075938 
L 183.442767 -35.075938 
L 181.786981 -35.075938 
L 180.131194 -35.075938 
L 178.475408 -35.075938 
L 176.819622 -35.075938 
L 175.163835 -35.075938 
L 173.508049 -35.075938 
L 171.852263 -35.075938 
L 170.196476 -35.075938 
L 168.54069 -35.075938 
L 166.884904 -35.075938 
L 165.229117 -35.075938 
L 163.573331 -35.075938 
L 161.917545 -35.075938 
L 160.261758 -35.075938 
L 158.605972 -35.075938 
L 156.950185 -35.075938 
L 155.294399 -35.075938 
L 153.638613 -35.075938 
L 151.982826 -35.075938 
L 150.32704 -35.075938 
L 148.671254 -35.075938 
L 147.015467 -35.075938 
L 145.359681 -35.075938 
L 143.703895 -35.075938 
L 142.048108 -35.075938 
L 140.392322 -35.075938 
L 138.736536 -35.075938 
L 137.080749 -35.075938 
L 135.424963 -35.075938 
L 133.769177 -35.075938 
L 132.11339 -35.075938 
L 130.457604 -35.075938 
L 128.801818 -35.075938 
L 127.146031 -35.075938 
L 125.490245 -35.075938 
L 123.834458 -35.075938 
L 122.178672 -35.075938 
L 120.522886 -35.075938 
L 118.867099 -35.075938 
L 117.211313 -35.075938 
L 115.555527 -35.075938 
L 113.89974 -35.075938 
L 112.243954 -35.075938 
L 110.588168 -35.075938 
L 108.932381 -35.075938 
L 107.276595 -35.075938 
L 105.620809 -35.075938 
L 103.965022 -35.075938 
L 102.309236 -35.075938 
L 100.65345 -35.075938 
L 98.997663 -35.075938 
L 97.341877 -35.075938 
L 95.686091 -35.075938 
L 94.030304 -35.075938 
L 92.374518 -35.075938 
L 90.718731 -35.075938 
L 89.062945 -35.075938 
L 87.407159 -35.075938 
L 85.751372 -35.075938 
L 84.095586 -35.075938 
L 82.4398 -35.075938 
L 80.784013 -35.075938 
L 79.128227 -35.075938 
L 77.472441 -35.075938 
L 75.816654 -35.075938 
L 74.160868 -35.075938 
L 72.505082 -35.075938 
L 70.849295 -35.075938 
L 69.193509 -35.075938 
L 67.537723 -35.075938 
L 65.881936 -35.075938 
L 64.22615 -35.075938 
L 62.570364 -35.075938 
L 60.914577 -35.075938 
L 59.258791 -35.075938 
L 57.603004 -35.075938 
L 55.947218 -35.075938 
L 54.291432 -35.075938 
L 52.635645 -35.075938 
L 50.979859 -35.075938 
L 49.324073 -35.075938 
L 47.668286 -35.075938 
L 46.0125 -35.075938 
z
" style="stroke: #696969"/>
    </defs>
    <g clip-path="url(#pb51f5e0c76)">
     <use xlink:href="#md1f8e36614" x="0" y="329.194063" style="fill: #696969; stroke: #696969"/>
    </g>
   </g>
   <g id="matplotlib.axis_1">
    <g id="xtick_1">
     <g id="line2d_1">
      <path d="M 64.22615 294.118125 
L 64.22615 22.318125 
" clip-path="url(#pb51f5e0c76)" style="fill: none; stroke: #b0b0b0; stroke-width: 0.8; stroke-linecap: square"/>
     </g>
     <g id="line2d_2">
      <defs>
       <path id="m26c02d369d" d="M 0 0 
L 0 3.5 
" style="stroke: #000000; stroke-width: 0.8"/>
      </defs>
      <g>
       <use xlink:href="#m26c02d369d" x="64.22615" y="294.118125" style="stroke: #000000; stroke-width: 0.8"/>
      </g>
     </g>
     <g id="text_1">
      <!-- 09/08/2022 -->
      <g transform="translate(35.4074 308.716563)scale(0.1 -0.1)">
       <defs>
        <path id="DejaVuSans-30" d="M 2034 4250 
Q 1547 4250 1301 3770 
Q 1056 3291 1056 2328 
Q 1056 1369 1301 889 
Q 1547 409 2034 409 
Q 2525 409 2770 889 
Q 3016 1369 3016 2328 
Q 3016 3291 2770 3770 
Q 2525 4250 2034 4250 
z
M 2034 4750 
Q 2819 4750 3233 4129 
Q 3647 3509 3647 2328 
Q 3647 1150 3233 529 
Q 2819 -91 2034 -91 
Q 1250 -91 836 529 
Q 422 1150 422 2328 
Q 422 3509 836 4129 
Q 1250 4750 2034 4750 
z
" transform="scale(0.015625)"/>
        <path id="DejaVuSans-39" d="M 703 97 
L 703 672 
Q 941 559 1184 500 
Q 1428 441 1663 441 
Q 2288 441 2617 861 
Q 2947 1281 2994 2138 
Q 2813 1869 2534 1725 
Q 2256 1581 1919 1581 
Q 1219 1581 811 2004 
Q 403 2428 403 3163 
Q 403 3881 828 4315 
Q 1253 4750 1959 4750 
Q 2769 4750 3195 4129 
Q 3622 3509 3622 2328 
Q 3622 1225 3098 567 
Q 2575 -91 1691 -91 
Q 1453 -91 1209 -44 
Q 966 3 703 97 
z
M 1959 2075 
Q 2384 2075 2632 2365 
Q 2881 2656 2881 3163 
Q 2881 3666 2632 3958 
Q 2384 4250 1959 4250 
Q 1534 4250 1286 3958 
Q 1038 3666 1038 3163 
Q 1038 2656 1286 2365 
Q 1534 2075 1959 2075 
z
" transform="scale(0.015625)"/>
        <path id="DejaVuSans-2f" d="M 1625 4666 
L 2156 4666 
L 531 -594 
L 0 -594 
L 1625 4666 
z
" transform="scale(0.015625)"/>
        <path id="DejaVuSans-38" d="M 2034 2216 
Q 1584 2216 1326 1975 
Q 1069 1734 1069 1313 
Q 1069 891 1326 650 
Q 1584 409 2034 409 
Q 2484 409 2743 651 
Q 3003 894 3003 1313 
Q 3003 1734 2745 1975 
Q 2488 2216 2034 2216 
z
M 1403 2484 
Q 997 2584 770 2862 
Q 544 3141 544 3541 
Q 544 4100 942 4425 
Q 1341 4750 2034 4750 
Q 2731 4750 3128 4425 
Q 3525 4100 3525 3541 
Q 3525 3141 3298 2862 
Q 3072 2584 2669 2484 
Q 3125 2378 3379 2068 
Q 3634 1759 3634 1313 
Q 3634 634 3220 271 
Q 2806 -91 2034 -91 
Q 1263 -91 848 271 
Q 434 634 434 1313 
Q 434 1759 690 2068 
Q 947 2378 1403 2484 
z
M 1172 3481 
Q 1172 3119 1398 2916 
Q 1625 2713 2034 2713 
Q 2441 2713 2670 2916 
Q 2900 3119 2900 3481 
Q 2900 3844 2670 4047 
Q 2441 4250 2034 4250 
Q 1625 4250 1398 4047 
Q 1172 3844 1172 3481 
z
" transform="scale(0.015625)"/>
        <path id="DejaVuSans-32" d="M 1228 531 
L 3431 531 
L 3431 0 
L 469 0 
L 469 531 
Q 828 903 1448 1529 
Q 2069 2156 2228 2338 
Q 2531 2678 2651 2914 
Q 2772 3150 2772 3378 
Q 2772 3750 2511 3984 
Q 2250 4219 1831 4219 
Q 1534 4219 1204 4116 
Q 875 4013 500 3803 
L 500 4441 
Q 881 4594 1212 4672 
Q 1544 4750 1819 4750 
Q 2544 4750 2975 4387 
Q 3406 4025 3406 3419 
Q 3406 3131 3298 2873 
Q 3191 2616 2906 2266 
Q 2828 2175 2409 1742 
Q 1991 1309 1228 531 
z
" transform="scale(0.015625)"/>
       </defs>
       <use xlink:href="#DejaVuSans-30"/>
       <use xlink:href="#DejaVuSans-39" x="63.623047"/>
       <use xlink:href="#DejaVuSans-2f" x="127.246094"/>
       <use xlink:href="#DejaVuSans-30" x="160.9375"/>
       <use xlink:href="#DejaVuSans-38" x="224.560547"/>
       <use xlink:href="#DejaVuSans-2f" x="288.183594"/>
       <use xlink:href="#DejaVuSans-32" x="321.875"/>
       <use xlink:href="#DejaVuSans-30" x="385.498047"/>
       <use xlink:href="#DejaVuSans-32" x="449.121094"/>
       <use xlink:href="#DejaVuSans-32" x="512.744141"/>
      </g>
      <!--  00:00 -->
      <g transform="translate(48.227712 319.914375)scale(0.1 -0.1)">
       <defs>
        <path id="DejaVuSans-20" transform="scale(0.015625)"/>
        <path id="DejaVuSans-3a" d="M 750 794 
L 1409 794 
L 1409 0 
L 750 0 
L 750 794 
z
M 750 3309 
L 1409 3309 
L 1409 2516 
L 750 2516 
L 750 3309 
z
" transform="scale(0.015625)"/>
       </defs>
       <use xlink:href="#DejaVuSans-20"/>
       <use xlink:href="#DejaVuSans-30" x="31.787109"/>
       <use xlink:href="#DejaVuSans-30" x="95.410156"/>
       <use xlink:href="#DejaVuSans-3a" x="159.033203"/>
       <use xlink:href="#DejaVuSans-30" x="192.724609"/>
       <use xlink:href="#DejaVuSans-30" x="256.347656"/>
      </g>
     </g>
    </g>
    <g id="xtick_2">
     <g id="line2d_3">
      <path d="M 143.703895 294.118125 
L 143.703895 22.318125 
" clip-path="url(#pb51f5e0c76)" style="fill: none; stroke: #b0b0b0; stroke-width: 0.8; stroke-linecap: square"/>
     </g>
     <g id="line2d_4">
      <g>
       <use xlink:href="#m26c02d369d" x="143.703895" y="294.118125" style="stroke: #000000; stroke-width: 0.8"/>
      </g>
     </g>
     <g id="text_2">
      <!-- 11/08/2022 -->
      <g transform="translate(114.885145 308.716563)scale(0.1 -0.1)">
       <defs>
        <path id="DejaVuSans-31" d="M 794 531 
L 1825 531 
L 1825 4091 
L 703 3866 
L 703 4441 
L 1819 4666 
L 2450 4666 
L 2450 531 
L 3481 531 
L 3481 0 
L 794 0 
L 794 531 
z
" transform="scale(0.015625)"/>
       </defs>
       <use xlink:href="#DejaVuSans-31"/>
       <use xlink:href="#DejaVuSans-31" x="63.623047"/>
       <use xlink:href="#DejaVuSans-2f" x="127.246094"/>
       <use xlink:href="#DejaVuSans-30" x="160.9375"/>
       <use xlink:href="#DejaVuSans-38" x="224.560547"/>
       <use xlink:href="#DejaVuSans-2f" x="288.183594"/>
       <use xlink:href="#DejaVuSans-32" x="321.875"/>
       <use xlink:href="#DejaVuSans-30" x="385.498047"/>
       <use xlink:href="#DejaVuSans-32" x="449.121094"/>
       <use xlink:href="#DejaVuSans-32" x="512.744141"/>
      </g>
      <!--  00:00 -->
      <g transform="translate(127.705457 319.914375)scale(0.1 -0.1)">
       <use xlink:href="#DejaVuSans-20"/>
       <use xlink:href="#DejaVuSans-30" x="31.787109"/>
       <use xlink:href="#DejaVuSans-30" x="95.410156"/>
       <use xlink:href="#DejaVuSans-3a" x="159.033203"/>
       <use xlink:href="#DejaVuSans-30" x="192.724609"/>
       <use xlink:href="#DejaVuSans-30" x="256.347656"/>
      </g>
     </g>
    </g>
    <g id="xtick_3">
     <g id="line2d_5">
      <path d="M 223.181639 294.118125 
L 223.181639 22.318125 
" clip-path="url(#pb51f5e0c76)" style="fill: none; stroke: #b0b0b0; stroke-width: 0.8; stroke-linecap: square"/>
     </g>
     <g id="line2d_6">
      <g>
       <use xlink:href="#m26c02d369d" x="223.181639" y="294.118125" style="stroke: #000000; stroke-width: 0.8"/>
      </g>
     </g>
     <g id="text_3">
      <!-- 13/08/2022 -->
      <g transform="translate(194.362889 308.716563)scale(0.1 -0.1)">
       <defs>
        <path id="DejaVuSans-33" d="M 2597 2516 
Q 3050 2419 3304 2112 
Q 3559 1806 3559 1356 
Q 3559 666 3084 287 
Q 2609 -91 1734 -91 
Q 1441 -91 1130 -33 
Q 819 25 488 141 
L 488 750 
Q 750 597 1062 519 
Q 1375 441 1716 441 
Q 2309 441 2620 675 
Q 2931 909 2931 1356 
Q 2931 1769 2642 2001 
Q 2353 2234 1838 2234 
L 1294 2234 
L 1294 2753 
L 1863 2753 
Q 2328 2753 2575 2939 
Q 2822 3125 2822 3475 
Q 2822 3834 2567 4026 
Q 2313 4219 1838 4219 
Q 1578 4219 1281 4162 
Q 984 4106 628 3988 
L 628 4550 
Q 988 4650 1302 4700 
Q 1616 4750 1894 4750 
Q 2613 4750 3031 4423 
Q 3450 4097 3450 3541 
Q 3450 3153 3228 2886 
Q 3006 2619 2597 2516 
z
" transform="scale(0.015625)"/>
       </defs>
       <use xlink:href="#DejaVuSans-31"/>
       <use xlink:href="#DejaVuSans-33" x="63.623047"/>
       <use xlink:href="#DejaVuSans-2f" x="127.246094"/>
       <use xlink:href="#DejaVuSans-30" x="160.9375"/>
       <use xlink:href="#DejaVuSans-38" x="224.560547"/>
       <use xlink:href="#DejaVuSans-2f" x="288.183594"/>
       <use xlink:href="#DejaVuSans-32" x="321.875"/>
       <use xlink:href="#DejaVuSans-30" x="385.498047"/>
       <use xlink:href="#DejaVuSans-32" x="449.121094"/>
       <use xlink:href="#DejaVuSans-32" x="512.744141"/>
      </g>
      <!--  00:00 -->
      <g transform="translate(207.183202 319.914375)scale(0.1 -0.1)">
       <use xlink:href="#DejaVuSans-20"/>
       <use xlink:href="#DejaVuSans-30" x="31.787109"/>
       <use xlink:href="#DejaVuSans-30" x="95.410156"/>
       <use xlink:href="#DejaVuSans-3a" x="159.033203"/>
       <use xlink:href="#DejaVuSans-30" x="192.724609"/>
       <use xlink:href="#DejaVuSans-30" x="256.347656"/>
      </g>
     </g>
    </g>
    <g id="xtick_4">
     <g id="line2d_7">
      <path d="M 302.659384 294.118125 
L 302.659384 22.318125 
" clip-path="url(#pb51f5e0c76)" style="fill: none; stroke: #b0b0b0; stroke-width: 0.8; stroke-linecap: square"/>
     </g>
     <g id="line2d_8">
      <g>
       <use xlink:href="#m26c02d369d" x="302.659384" y="294.118125" style="stroke: #000000; stroke-width: 0.8"/>
      </g>
     </g>
     <g id="text_4">
      <!-- 15/08/2022 -->
      <g transform="translate(273.840634 308.716563)scale(0.1 -0.1)">
       <defs>
        <path id="DejaVuSans-35" d="M 691 4666 
L 3169 4666 
L 3169 4134 
L 1269 4134 
L 1269 2991 
Q 1406 3038 1543 3061 
Q 1681 3084 1819 3084 
Q 2600 3084 3056 2656 
Q 3513 2228 3513 1497 
Q 3513 744 3044 326 
Q 2575 -91 1722 -91 
Q 1428 -91 1123 -41 
Q 819 9 494 109 
L 494 744 
Q 775 591 1075 516 
Q 1375 441 1709 441 
Q 2250 441 2565 725 
Q 2881 1009 2881 1497 
Q 2881 1984 2565 2268 
Q 2250 2553 1709 2553 
Q 1456 2553 1204 2497 
Q 953 2441 691 2322 
L 691 4666 
z
" transform="scale(0.015625)"/>
       </defs>
       <use xlink:href="#DejaVuSans-31"/>
       <use xlink:href="#DejaVuSans-35" x="63.623047"/>
       <use xlink:href="#DejaVuSans-2f" x="127.246094"/>
       <use xlink:href="#DejaVuSans-30" x="160.9375"/>
       <use xlink:href="#DejaVuSans-38" x="224.560547"/>
       <use xlink:href="#DejaVuSans-2f" x="288.183594"/>
       <use xlink:href="#DejaVuSans-32" x="321.875"/>
       <use xlink:href="#DejaVuSans-30" x="385.498047"/>
       <use xlink:href="#DejaVuSans-32" x="449.121094"/>
       <use xlink:href="#DejaVuSans-32" x="512.744141"/>
      </g>
      <!--  00:00 -->
      <g transform="translate(286.660947 319.914375)scale(0.1 -0.1)">
       <use xlink:href="#DejaVuSans-20"/>
       <use xlink:href="#DejaVuSans-30" x="31.787109"/>
       <use xlink:href="#DejaVuSans-30" x="95.410156"/>
       <use xlink:href="#DejaVuSans-3a" x="159.033203"/>
       <use xlink:href="#DejaVuSans-30" x="192.724609"/>
       <use xlink:href="#DejaVuSans-30" x="256.347656"/>
      </g>
     </g>
    </g>
    <g id="xtick_5">
     <g id="line2d_9">
      <path d="M 382.137129 294.118125 
L 382.137129 22.318125 
" clip-path="url(#pb51f5e0c76)" style="fill: none; stroke: #b0b0b0; stroke-width: 0.8; stroke-linecap: square"/>
     </g>
     <g id="line2d_10">
      <g>
       <use xlink:href="#m26c02d369d" x="382.137129" y="294.118125" style="stroke: #000000; stroke-width: 0.8"/>
      </g>
     </g>
     <g id="text_5">
      <!-- 17/08/2022 -->
      <g transform="translate(353.318379 308.716563)scale(0.1 -0.1)">
       <defs>
        <path id="DejaVuSans-37" d="M 525 4666 
L 3525 4666 
L 3525 4397 
L 1831 0 
L 1172 0 
L 2766 4134 
L 525 4134 
L 525 4666 
z
" transform="scale(0.015625)"/>
       </defs>
       <use xlink:href="#DejaVuSans-31"/>
       <use xlink:href="#DejaVuSans-37" x="63.623047"/>
       <use xlink:href="#DejaVuSans-2f" x="127.246094"/>
       <use xlink:href="#DejaVuSans-30" x="160.9375"/>
       <use xlink:href="#DejaVuSans-38" x="224.560547"/>
       <use xlink:href="#DejaVuSans-2f" x="288.183594"/>
       <use xlink:href="#DejaVuSans-32" x="321.875"/>
       <use xlink:href="#DejaVuSans-30" x="385.498047"/>
       <use xlink:href="#DejaVuSans-32" x="449.121094"/>
       <use xlink:href="#DejaVuSans-32" x="512.744141"/>
      </g>
      <!--  00:00 -->
      <g transform="translate(366.138692 319.914375)scale(0.1 -0.1)">
       <use xlink:href="#DejaVuSans-20"/>
       <use xlink:href="#DejaVuSans-30" x="31.787109"/>
       <use xlink:href="#DejaVuSans-30" x="95.410156"/>
       <use xlink:href="#DejaVuSans-3a" x="159.033203"/>
       <use xlink:href="#DejaVuSans-30" x="192.724609"/>
       <use xlink:href="#DejaVuSans-30" x="256.347656"/>
      </g>
     </g>
    </g>
    <g id="xtick_6">
     <g id="line2d_11">
      <path d="M 461.614874 294.118125 
L 461.614874 22.318125 
" clip-path="url(#pb51f5e0c76)" style="fill: none; stroke: #b0b0b0; stroke-width: 0.8; stroke-linecap: square"/>
     </g>
     <g id="line2d_12">
      <g>
       <use xlink:href="#m26c02d369d" x="461.614874" y="294.118125" style="stroke: #000000; stroke-width: 0.8"/>
      </g>
     </g>
     <g id="text_6">
      <!-- 19/08/2022 -->
      <g transform="translate(432.796124 308.716563)scale(0.1 -0.1)">
       <use xlink:href="#DejaVuSans-31"/>
       <use xlink:href="#DejaVuSans-39" x="63.623047"/>
       <use xlink:href="#DejaVuSans-2f" x="127.246094"/>
       <use xlink:href="#DejaVuSans-30" x="160.9375"/>
       <use xlink:href="#DejaVuSans-38" x="224.560547"/>
       <use xlink:href="#DejaVuSans-2f" x="288.183594"/>
       <use xlink:href="#DejaVuSans-32" x="321.875"/>
       <use xlink:href="#DejaVuSans-30" x="385.498047"/>
       <use xlink:href="#DejaVuSans-32" x="449.121094"/>
       <use xlink:href="#DejaVuSans-32" x="512.744141"/>
      </g>
      <!--  00:00 -->
      <g transform="translate(445.616436 319.914375)scale(0.1 -0.1)">
       <use xlink:href="#DejaVuSans-20"/>
       <use xlink:href="#DejaVuSans-30" x="31.787109"/>
       <use xlink:href="#DejaVuSans-30" x="95.410156"/>
       <use xlink:href="#DejaVuSans-3a" x="159.033203"/>
       <use xlink:href="#DejaVuSans-30" x="192.724609"/>
       <use xlink:href="#DejaVuSans-30" x="256.347656"/>
      </g>
     </g>
    </g>
    <g id="xtick_7">
     <g id="line2d_13">
      <path d="M 541.092619 294.118125 
L 541.092619 22.318125 
" clip-path="url(#pb51f5e0c76)" style="fill: none; stroke: #b0b0b0; stroke-width: 0.8; stroke-linecap: square"/>
     </g>
     <g id="line2d_14">
      <g>
       <use xlink:href="#m26c02d369d" x="541.092619" y="294.118125" style="stroke: #000000; stroke-width: 0.8"/>
      </g>
     </g>
     <g id="text_7">
      <!-- 21/08/2022 -->
      <g transform="translate(512.273869 308.716563)scale(0.1 -0.1)">
       <use xlink:href="#DejaVuSans-32"/>
       <use xlink:href="#DejaVuSans-31" x="63.623047"/>
       <use xlink:href="#DejaVuSans-2f" x="127.246094"/>
       <use xlink:href="#DejaVuSans-30" x="160.9375"/>
       <use xlink:href="#DejaVuSans-38" x="224.560547"/>
       <use xlink:href="#DejaVuSans-2f" x="288.183594"/>
       <use xlink:href="#DejaVuSans-32" x="321.875"/>
       <use xlink:href="#DejaVuSans-30" x="385.498047"/>
       <use xlink:href="#DejaVuSans-32" x="449.121094"/>
       <use xlink:href="#DejaVuSans-32" x="512.744141"/>
      </g>
      <!--  00:00 -->
      <g transform="translate(525.094181 319.914375)scale(0.1 -0.1)">
       <use xlink:href="#DejaVuSans-20"/>
       <use xlink:href="#DejaVuSans-30" x="31.787109"/>
       <use xlink:href="#DejaVuSans-30" x="95.410156"/>
       <use xlink:href="#DejaVuSans-3a" x="159.033203"/>
       <use xlink:href="#DejaVuSans-30" x="192.724609"/>
       <use xlink:href="#DejaVuSans-30" x="256.347656"/>
      </g>
     </g>
    </g>
   </g>
   <g id="matplotlib.axis_2">
    <g id="ytick_1">
     <g id="line2d_15">
      <path d="M 46.0125 294.118125 
L 604.0125 294.118125 
" clip-path="url(#pb51f5e0c76)" style="fill: none; stroke: #b0b0b0; stroke-width: 0.8; stroke-linecap: square"/>
     </g>
     <g id="line2d_16">
      <defs>
       <path id="mb2ae3c6268" d="M 0 0 
L -3.5 0 
" style="stroke: #000000; stroke-width: 0.8"/>
      </defs>
      <g>
       <use xlink:href="#mb2ae3c6268" x="46.0125" y="294.118125" style="stroke: #000000; stroke-width: 0.8"/>
      </g>
     </g>
     <g id="text_8">
      <!-- 0 -->
      <g transform="translate(32.65 297.917344)scale(0.1 -0.1)">
       <use xlink:href="#DejaVuSans-30"/>
      </g>
     </g>
    </g>
    <g id="ytick_2">
     <g id="line2d_17">
      <path d="M 46.0125 263.551427 
L 604.0125 263.551427 
" clip-path="url(#pb51f5e0c76)" style="fill: none; stroke: #b0b0b0; stroke-width: 0.8; stroke-linecap: square"/>
     </g>
     <g id="line2d_18">
      <g>
       <use xlink:href="#mb2ae3c6268" x="46.0125" y="263.551427" style="stroke: #000000; stroke-width: 0.8"/>
      </g>
     </g>
     <g id="text_9">
      <!-- 5000 -->
      <g transform="translate(13.5625 267.350645)scale(0.1 -0.1)">
       <use xlink:href="#DejaVuSans-35"/>
       <use xlink:href="#DejaVuSans-30" x="63.623047"/>
       <use xlink:href="#DejaVuSans-30" x="127.246094"/>
       <use xlink:href="#DejaVuSans-30" x="190.869141"/>
      </g>
     </g>
    </g>
    <g id="ytick_3">
     <g id="line2d_19">
      <path d="M 46.0125 232.984728 
L 604.0125 232.984728 
" clip-path="url(#pb51f5e0c76)" style="fill: none; stroke: #b0b0b0; stroke-width: 0.8; stroke-linecap: square"/>
     </g>
     <g id="line2d_20">
      <g>
       <use xlink:href="#mb2ae3c6268" x="46.0125" y="232.984728" style="stroke: #000000; stroke-width: 0.8"/>
      </g>
     </g>
     <g id="text_10">
      <!-- 10000 -->
      <g transform="translate(7.2 236.783947)scale(0.1 -0.1)">
       <use xlink:href="#DejaVuSans-31"/>
       <use xlink:href="#DejaVuSans-30" x="63.623047"/>
       <use xlink:href="#DejaVuSans-30" x="127.246094"/>
       <use xlink:href="#DejaVuSans-30" x="190.869141"/>
       <use xlink:href="#DejaVuSans-30" x="254.492188"/>
      </g>
     </g>
    </g>
    <g id="ytick_4">
     <g id="line2d_21">
      <path d="M 46.0125 202.41803 
L 604.0125 202.41803 
" clip-path="url(#pb51f5e0c76)" style="fill: none; stroke: #b0b0b0; stroke-width: 0.8; stroke-linecap: square"/>
     </g>
     <g id="line2d_22">
      <g>
       <use xlink:href="#mb2ae3c6268" x="46.0125" y="202.41803" style="stroke: #000000; stroke-width: 0.8"/>
      </g>
     </g>
     <g id="text_11">
      <!-- 15000 -->
      <g transform="translate(7.2 206.217248)scale(0.1 -0.1)">
       <use xlink:href="#DejaVuSans-31"/>
       <use xlink:href="#DejaVuSans-35" x="63.623047"/>
       <use xlink:href="#DejaVuSans-30" x="127.246094"/>
       <use xlink:href="#DejaVuSans-30" x="190.869141"/>
       <use xlink:href="#DejaVuSans-30" x="254.492188"/>
      </g>
     </g>
    </g>
    <g id="ytick_5">
     <g id="line2d_23">
      <path d="M 46.0125 171.851331 
L 604.0125 171.851331 
" clip-path="url(#pb51f5e0c76)" style="fill: none; stroke: #b0b0b0; stroke-width: 0.8; stroke-linecap: square"/>
     </g>
     <g id="line2d_24">
      <g>
       <use xlink:href="#mb2ae3c6268" x="46.0125" y="171.851331" style="stroke: #000000; stroke-width: 0.8"/>
      </g>
     </g>
     <g id="text_12">
      <!-- 20000 -->
      <g transform="translate(7.2 175.65055)scale(0.1 -0.1)">
       <use xlink:href="#DejaVuSans-32"/>
       <use xlink:href="#DejaVuSans-30" x="63.623047"/>
       <use xlink:href="#DejaVuSans-30" x="127.246094"/>
       <use xlink:href="#DejaVuSans-30" x="190.869141"/>
       <use xlink:href="#DejaVuSans-30" x="254.492188"/>
      </g>
     </g>
    </g>
    <g id="ytick_6">
     <g id="line2d_25">
      <path d="M 46.0125 141.284633 
L 604.0125 141.284633 
" clip-path="url(#pb51f5e0c76)" style="fill: none; stroke: #b0b0b0; stroke-width: 0.8; stroke-linecap: square"/>
     </g>
     <g id="line2d_26">
      <g>
       <use xlink:href="#mb2ae3c6268" x="46.0125" y="141.284633" style="stroke: #000000; stroke-width: 0.8"/>
      </g>
     </g>
     <g id="text_13">
      <!-- 25000 -->
      <g transform="translate(7.2 145.083851)scale(0.1 -0.1)">
       <use xlink:href="#DejaVuSans-32"/>
       <use xlink:href="#DejaVuSans-35" x="63.623047"/>
       <use xlink:href="#DejaVuSans-30" x="127.246094"/>
       <use xlink:href="#DejaVuSans-30" x="190.869141"/>
       <use xlink:href="#DejaVuSans-30" x="254.492188"/>
      </g>
     </g>
    </g>
    <g id="ytick_7">
     <g id="line2d_27">
      <path d="M 46.0125 110.717934 
L 604.0125 110.717934 
" clip-path="url(#pb51f5e0c76)" style="fill: none; stroke: #b0b0b0; stroke-width: 0.8; stroke-linecap: square"/>
     </g>
     <g id="line2d_28">
      <g>
       <use xlink:href="#mb2ae3c6268" x="46.0125" y="110.717934" style="stroke: #000000; stroke-width: 0.8"/>
      </g>
     </g>
     <g id="text_14">
      <!-- 30000 -->
      <g transform="translate(7.2 114.517153)scale(0.1 -0.1)">
       <use xlink:href="#DejaVuSans-33"/>
       <use xlink:href="#DejaVuSans-30" x="63.623047"/>
       <use xlink:href="#DejaVuSans-30" x="127.246094"/>
       <use xlink:href="#DejaVuSans-30" x="190.869141"/>
       <use xlink:href="#DejaVuSans-30" x="254.492188"/>
      </g>
     </g>
    </g>
    <g id="ytick_8">
     <g id="line2d_29">
      <path d="M 46.0125 80.151236 
L 604.0125 80.151236 
" clip-path="url(#pb51f5e0c76)" style="fill: none; stroke: #b0b0b0; stroke-width: 0.8; stroke-linecap: square"/>
     </g>
     <g id="line2d_30">
      <g>
       <use xlink:href="#mb2ae3c6268" x="46.0125" y="80.151236" style="stroke: #000000; stroke-width: 0.8"/>
      </g>
     </g>
     <g id="text_15">
      <!-- 35000 -->
      <g transform="translate(7.2 83.950454)scale(0.1 -0.1)">
       <use xlink:href="#DejaVuSans-33"/>
       <use xlink:href="#DejaVuSans-35" x="63.623047"/>
       <use xlink:href="#DejaVuSans-30" x="127.246094"/>
       <use xlink:href="#DejaVuSans-30" x="190.869141"/>
       <use xlink:href="#DejaVuSans-30" x="254.492188"/>
      </g>
     </g>
    </g>
    <g id="ytick_9">
     <g id="line2d_31">
      <path d="M 46.0125 49.584537 
L 604.0125 49.584537 
" clip-path="url(#pb51f5e0c76)" style="fill: none; stroke: #b0b0b0; stroke-width: 0.8; stroke-linecap: square"/>
     </g>
     <g id="line2d_32">
      <g>
       <use xlink:href="#mb2ae3c6268" x="46.0125" y="49.584537" style="stroke: #000000; stroke-width: 0.8"/>
      </g>
     </g>
     <g id="text_16">
      <!-- 40000 -->
      <g transform="translate(7.2 53.383756)scale(0.1 -0.1)">
       <defs>
        <path id="DejaVuSans-34" d="M 2419 4116 
L 825 1625 
L 2419 1625 
L 2419 4116 
z
M 2253 4666 
L 3047 4666 
L 3047 1625 
L 3713 1625 
L 3713 1100 
L 3047 1100 
L 3047 0 
L 2419 0 
L 2419 1100 
L 313 1100 
L 313 1709 
L 2253 4666 
z
" transform="scale(0.015625)"/>
       </defs>
       <use xlink:href="#DejaVuSans-34"/>
       <use xlink:href="#DejaVuSans-30" x="63.623047"/>
       <use xlink:href="#DejaVuSans-30" x="127.246094"/>
       <use xlink:href="#DejaVuSans-30" x="190.869141"/>
       <use xlink:href="#DejaVuSans-30" x="254.492188"/>
      </g>
     </g>
    </g>
   </g>
   <g id="line2d_33">
    <path d="M 46.0125 267.604571 
L 47.668286 270.581767 
L 49.324073 269.022866 
L 50.979859 272.758116 
L 52.635645 275.447986 
L 54.291432 278.981496 
L 55.947218 277.281987 
L 57.603004 278.088948 
L 59.258791 275.937053 
L 60.914577 278.211215 
L 62.570364 276.994661 
L 64.22615 279.488903 
L 65.881936 280.228617 
L 67.537723 283.297514 
L 69.193509 282.771767 
L 72.505082 280.405904 
L 74.160868 280.937765 
L 75.816654 280.12469 
L 77.472441 281.066145 
L 79.128227 278.957043 
L 80.784013 279.800683 
L 82.4398 278.767529 
L 84.095586 280.17971 
L 85.751372 278.730849 
L 87.407159 280.962218 
L 89.062945 278.932589 
L 92.374518 280.283637 
L 94.030304 280.522058 
L 95.686091 278.125628 
L 97.341877 280.130804 
L 98.997663 278.516882 
L 100.65345 275.539686 
L 102.309236 273.40613 
L 103.965022 274.427058 
L 105.620809 274.347584 
L 107.276595 277.135267 
L 108.932381 275.979846 
L 110.588168 279.226029 
L 112.243954 278.981496 
L 113.89974 279.617283 
L 115.555527 273.779044 
L 117.211313 276.126566 
L 118.867099 275.399079 
L 120.522886 268.362625 
L 122.178672 273.308317 
L 123.834458 275.845353 
L 125.490245 276.615633 
L 127.146031 277.942228 
L 128.801818 276.11434 
L 130.457604 278.376275 
L 132.11339 277.410368 
L 133.769177 279.171009 
L 135.424963 277.899435 
L 137.080749 279.378863 
L 138.736536 278.461862 
L 140.392322 280.008537 
L 142.048108 277.361461 
L 143.703895 279.62951 
L 145.359681 278.278462 
L 147.015467 279.550036 
L 148.671254 278.150082 
L 150.32704 280.344771 
L 151.982826 277.599881 
L 153.638613 278.614696 
L 155.294399 273.797384 
L 156.950185 275.503006 
L 158.605972 272.287389 
L 160.261758 274.310904 
L 161.917545 274.616571 
L 163.573331 276.377213 
L 165.229117 274.726611 
L 166.884904 274.806085 
L 168.54069 273.16771 
L 170.196476 274.543211 
L 171.852263 271.987835 
L 173.508049 271.896135 
L 175.163835 269.059546 
L 176.819622 268.943392 
L 178.475408 269.352986 
L 180.131194 267.25611 
L 181.786981 269.585293 
L 183.442767 268.087525 
L 185.098553 264.352274 
L 186.75434 265.110328 
L 188.410126 262.609972 
L 190.065912 265.177575 
L 191.721699 264.303367 
L 193.377485 265.464902 
L 195.033272 259.180389 
L 196.689058 248.763258 
L 198.344844 254.271377 
L 200.000631 256.117605 
L 201.656417 263.899887 
L 203.312203 268.344285 
L 204.96799 262.402119 
L 206.623776 265.415995 
L 208.279562 266.241296 
L 209.935349 273.448923 
L 211.591135 272.226256 
L 213.246921 273.192163 
L 214.902708 274.726611 
L 216.558494 273.650664 
L 218.21428 267.23777 
L 219.870067 266.644776 
L 221.525853 262.255398 
L 223.181639 259.369902 
L 224.837426 255.457365 
L 226.493212 264.425634 
L 228.148999 265.079761 
L 229.804785 255.469591 
L 231.460571 232.361167 
L 233.116358 235.09383 
L 234.772144 230.252065 
L 236.42793 243.401859 
L 239.739503 262.878959 
L 241.395289 263.918227 
L 243.051076 260.494757 
L 244.706862 261.925278 
L 246.362648 262.371552 
L 248.018435 259.553302 
L 249.674221 260.50087 
L 251.330007 259.339335 
L 252.985794 260.451963 
L 254.64158 257.18744 
L 256.297366 256.245986 
L 257.953153 250.248799 
L 259.608939 249.502972 
L 261.264726 247.143223 
L 262.920512 242.582671 
L 264.576298 241.091016 
L 266.232085 243.175665 
L 267.887871 233.858936 
L 269.543657 220.397362 
L 271.199444 218.043726 
L 272.85523 212.859614 
L 274.511016 216.888305 
L 276.166803 230.355992 
L 277.822589 238.767947 
L 279.478375 254.356964 
L 281.134162 258.159461 
L 282.789948 262.310419 
L 284.445734 263.22742 
L 286.101521 261.130544 
L 287.757307 260.195203 
L 289.413093 260.42751 
L 291.06888 258.012741 
L 292.724666 262.738352 
L 294.380453 261.093864 
L 296.036239 260.164636 
L 297.692025 256.356026 
L 301.003598 250.78066 
L 302.659384 250.047059 
L 304.315171 248.060224 
L 305.970957 246.984276 
L 307.626743 242.509311 
L 309.28253 241.928544 
L 310.938316 237.698113 
L 312.594102 229.377858 
L 314.249889 215.048189 
L 315.905675 214.663049 
L 317.561461 220.678575 
L 319.217248 233.302622 
L 320.873034 261.148884 
L 322.52882 267.665704 
L 324.184607 271.798322 
L 325.840393 264.028267 
L 327.49618 240.345189 
L 329.151966 245.015781 
L 330.807752 264.645714 
L 332.463539 263.863207 
L 334.119325 256.91234 
L 335.775111 152.178604 
L 337.430898 257.37084 
L 339.086684 254.876597 
L 340.74247 252.798062 
L 342.398257 259.565529 
L 344.054043 259.571642 
L 345.709829 256.863433 
L 347.365616 253.69061 
L 349.021402 258.067761 
L 350.677188 260.066823 
L 352.332975 263.728713 
L 353.988761 262.634426 
L 355.644547 263.75928 
L 357.300334 259.241522 
L 358.95612 259.975123 
L 360.611907 264.761868 
L 362.267693 270.3678 
L 363.923479 269.499706 
L 365.579266 271.119741 
L 367.235052 268.185338 
L 368.890838 265.672755 
L 370.546625 262.585519 
L 372.202411 261.503458 
L 373.858197 258.031081 
L 375.513984 259.314882 
L 377.16977 253.268789 
L 378.825556 243.591372 
L 380.481343 240.944296 
L 382.137129 249.551879 
L 383.792915 251.746568 
L 385.448702 255.860845 
L 387.104488 256.453839 
L 388.760274 250.8907 
L 390.416061 243.695299 
L 392.071847 247.106543 
L 393.727634 249.258438 
L 395.38342 200.529008 
L 397.039206 178.190864 
L 398.694993 213.849975 
L 400.350779 241.989677 
L 403.662352 263.875434 
L 405.318138 266.424696 
L 406.973924 256.025905 
L 408.629711 258.783022 
L 410.285497 255.121131 
L 411.941283 256.94902 
L 413.59707 260.73929 
L 415.252856 262.817826 
L 416.908642 258.141121 
L 418.564429 254.699311 
L 420.220215 238.945234 
L 421.876001 250.291593 
L 423.531788 247.296056 
L 425.187574 247.827917 
L 426.843361 249.362365 
L 428.499147 245.254201 
L 430.154933 243.328499 
L 431.81072 233.797802 
L 433.466506 223.270631 
L 435.122292 165.799125 
L 436.778079 35.260982 
L 438.433865 71.84932 
L 440.089651 200.675728 
L 441.745438 241.72069 
L 443.401224 247.406096 
L 445.05701 262.396005 
L 446.712797 267.946918 
L 448.368583 272.599169 
L 450.024369 272.745889 
L 451.680156 272.379089 
L 453.335942 268.980072 
L 454.991728 267.12773 
L 456.647515 266.222956 
L 458.303301 267.09105 
L 461.614874 264.174987 
L 463.27066 264.242234 
L 464.926447 268.215905 
L 466.582233 262.298192 
L 468.238019 266.90765 
L 469.893806 265.232595 
L 471.549592 264.529561 
L 473.205378 262.707786 
L 474.861165 261.564591 
L 476.516951 258.428448 
L 478.172737 259.149822 
L 481.48431 267.555664 
L 483.140096 267.029917 
L 484.795883 266.326883 
L 486.451669 270.483954 
L 488.107455 270.123267 
L 489.763242 265.336522 
L 491.419028 237.612526 
L 493.074815 221.473309 
L 494.730601 264.853568 
L 496.386387 269.297966 
L 498.042174 268.393192 
L 499.69796 270.001 
L 501.353746 272.782569 
L 503.009533 267.512871 
L 504.665319 254.876597 
L 506.321105 240.008955 
L 507.976892 218.349393 
L 509.632678 231.101819 
L 511.288464 253.886236 
L 512.944251 203.11495 
L 514.600037 216.069117 
L 516.255823 230.563845 
L 517.91161 242.056924 
L 519.567396 257.162987 
L 521.223182 262.029205 
L 522.878969 239.770535 
L 524.534755 233.106995 
L 526.190542 251.0741 
L 527.846328 263.019566 
L 531.157901 247.65063 
L 532.813687 264.358387 
L 534.469473 268.747765 
L 536.12526 269.004526 
L 537.781046 266.479716 
L 539.436832 258.593508 
L 541.092619 254.858257 
L 542.748405 213.691028 
L 544.404191 192.092599 
L 547.715764 166.000865 
L 549.37155 163.243749 
L 551.027337 182.824776 
L 552.683123 186.321606 
L 554.338909 183.43611 
L 555.994696 154.520013 
L 557.650482 154.171553 
L 559.306269 174.5412 
L 560.962055 189.628923 
L 562.617841 213.513741 
L 564.273628 249.429612 
L 565.929414 259.155935 
L 567.5852 234.714803 
L 569.240987 251.948308 
L 570.896773 261.876371 
L 572.552559 269.719786 
L 574.208346 271.174761 
L 575.864132 251.159687 
L 577.519918 239.250901 
L 579.175705 251.630414 
L 580.831491 265.360975 
L 582.487277 263.991587 
L 584.143064 257.126306 
L 585.79885 254.650404 
L 589.110423 234.959337 
L 590.766209 223.729132 
L 592.421996 165.854145 
L 594.077782 155.498147 
L 595.733568 150.852009 
L 597.389355 143.534342 
L 599.045141 180.703447 
L 600.700927 165.083864 
L 600.700927 165.083864 
" clip-path="url(#pb51f5e0c76)" style="fill: none; stroke: #9acd32; stroke-width: 1.5; stroke-linecap: square"/>
   </g>
   <g id="line2d_34">
    <path d="M 46.0125 280.467037 
L 47.668286 282.698406 
L 49.324073 283.548161 
L 50.979859 283.933301 
L 52.635645 286.831024 
L 54.291432 288.157619 
L 55.947218 287.717458 
L 57.603004 287.020538 
L 59.258791 286.49479 
L 60.914577 287.362885 
L 62.570364 287.729685 
L 64.22615 289.337493 
L 69.193509 291.012548 
L 72.505082 289.51478 
L 74.160868 289.991621 
L 75.816654 289.826561 
L 77.472441 289.508667 
L 79.128227 287.839725 
L 80.784013 287.919199 
L 82.4398 287.619645 
L 84.095586 288.585553 
L 85.751372 288.830086 
L 87.407159 289.392513 
L 89.062945 289.73486 
L 90.718731 290.260608 
L 92.374518 290.162794 
L 94.030304 289.618707 
L 95.686091 288.359359 
L 98.997663 289.73486 
L 100.65345 287.375111 
L 102.309236 285.210989 
L 103.965022 285.418843 
L 105.620809 285.94459 
L 107.276595 287.815272 
L 108.932381 289.14798 
L 110.588168 289.967167 
L 112.243954 290.529595 
L 113.89974 289.36806 
L 115.555527 286.140217 
L 117.211313 287.320091 
L 118.867099 287.436245 
L 120.522886 287.271185 
L 122.178672 288.224866 
L 123.834458 289.667614 
L 125.490245 289.55146 
L 127.146031 289.64316 
L 128.801818 289.575914 
L 130.457604 290.016074 
L 132.11339 290.590728 
L 133.769177 290.425668 
L 135.424963 290.664088 
L 137.080749 290.780242 
L 138.736536 290.352308 
L 140.392322 289.45976 
L 142.048108 288.182072 
L 143.703895 289.1113 
L 145.359681 289.453647 
L 147.015467 289.33138 
L 148.671254 288.732273 
L 150.32704 289.068506 
L 151.982826 288.683366 
L 153.638613 288.781179 
L 155.294399 284.648562 
L 156.950185 285.77953 
L 158.605972 284.825849 
L 160.261758 285.296576 
L 161.917545 287.527945 
L 163.573331 288.341019 
L 165.229117 288.573326 
L 166.884904 288.200412 
L 168.54069 288.047579 
L 170.196476 287.424018 
L 171.852263 287.032764 
L 173.508049 285.975157 
L 176.819622 283.1997 
L 178.475408 283.08966 
L 180.131194 281.598005 
L 181.786981 283.046867 
L 183.442767 281.384038 
L 185.098553 279.525583 
L 186.75434 279.128216 
L 188.410126 277.618221 
L 191.721699 279.470563 
L 193.377485 279.28105 
L 195.033272 276.120453 
L 196.689058 266.87097 
L 198.344844 272.94763 
L 200.000631 273.412243 
L 201.656417 280.687118 
L 203.312203 282.582253 
L 206.623776 285.534996 
L 208.279562 286.56815 
L 209.935349 287.955879 
L 211.591135 288.334906 
L 213.246921 288.353246 
L 214.902708 288.866766 
L 216.558494 288.328792 
L 218.21428 282.588366 
L 219.870067 280.12469 
L 221.525853 278.260122 
L 223.181639 274.537098 
L 224.837426 272.085649 
L 226.493212 277.930001 
L 228.148999 279.054856 
L 229.804785 268.906712 
L 231.460571 249.888112 
L 233.116358 251.893288 
L 234.772144 248.524838 
L 236.42793 261.540138 
L 238.083717 270.954681 
L 239.739503 279.268823 
L 243.051076 280.827724 
L 244.706862 280.937765 
L 248.018435 279.550036 
L 249.674221 279.458336 
L 251.330007 279.92295 
L 252.985794 280.662664 
L 254.64158 279.513356 
L 256.297366 279.329956 
L 257.953153 277.410368 
L 261.264726 275.013938 
L 262.920512 271.468201 
L 264.576298 270.752941 
L 266.232085 269.438573 
L 267.887871 265.373202 
L 269.543657 257.57258 
L 271.199444 256.129832 
L 272.85523 246.158975 
L 274.511016 254.069637 
L 277.822589 268.466552 
L 279.478375 278.510769 
L 281.134162 282.59448 
L 282.789948 285.528883 
L 284.445734 287.258958 
L 286.101521 285.810096 
L 287.757307 285.74285 
L 289.413093 285.81621 
L 291.06888 286.103537 
L 292.724666 286.562037 
L 294.380453 285.632809 
L 296.036239 283.499254 
L 297.692025 278.400729 
L 299.347812 277.049681 
L 301.003598 277.703808 
L 302.659384 277.190287 
L 304.315171 276.346646 
L 305.970957 274.329244 
L 307.626743 274.903898 
L 309.28253 272.348522 
L 310.938316 268.949505 
L 314.249889 249.937019 
L 315.905675 250.034832 
L 319.217248 276.585067 
L 320.873034 284.177835 
L 322.52882 289.71652 
L 324.184607 289.618707 
L 325.840393 288.775066 
L 327.49618 287.576852 
L 329.151966 282.258246 
L 330.807752 289.410853 
L 332.463539 289.1113 
L 334.119325 288.536646 
L 335.775111 287.680778 
L 337.430898 284.880869 
L 339.086684 282.5578 
L 340.74247 282.203226 
L 342.398257 283.535934 
L 344.054043 282.747313 
L 345.709829 280.852178 
L 347.365616 281.634685 
L 349.021402 283.12634 
L 350.677188 285.052042 
L 352.332975 286.176897 
L 353.988761 286.317504 
L 355.644547 285.198762 
L 357.300334 282.392739 
L 358.95612 281.689705 
L 360.611907 287.613532 
L 362.267693 289.416967 
L 363.923479 289.881581 
L 365.579266 290.217814 
L 367.235052 290.058867 
L 368.890838 290.370648 
L 372.202411 289.67984 
L 373.858197 288.402152 
L 375.513984 287.485151 
L 377.16977 283.853828 
L 378.825556 279.28105 
L 380.481343 278.645262 
L 382.137129 281.604119 
L 383.792915 283.487027 
L 385.448702 283.878281 
L 387.104488 284.746375 
L 390.416061 280.742138 
L 392.071847 283.658201 
L 393.727634 283.077434 
L 395.38342 273.57119 
L 397.039206 271.804435 
L 398.694993 275.576366 
L 400.350779 282.056506 
L 402.006565 285.272122 
L 403.662352 287.955879 
L 405.318138 288.206526 
L 408.629711 287.674665 
L 410.285497 287.790818 
L 411.941283 287.356771 
L 413.59707 287.925312 
L 415.252856 286.928838 
L 416.908642 283.584841 
L 418.564429 279.953517 
L 420.220215 278.510769 
L 421.876001 276.750127 
L 423.531788 274.072484 
L 425.187574 273.858517 
L 426.843361 275.472439 
L 428.499147 270.954681 
L 430.154933 271.370388 
L 431.81072 262.444912 
L 433.466506 265.972309 
L 436.778079 242.472631 
L 438.433865 247.96241 
L 440.089651 274.341471 
L 441.745438 282.930713 
L 443.401224 289.062393 
L 445.05701 289.899921 
L 446.712797 289.857127 
L 448.368583 290.425668 
L 450.024369 290.168908 
L 451.680156 289.270247 
L 453.335942 289.637047 
L 454.991728 288.145392 
L 456.647515 287.069444 
L 458.303301 287.625758 
L 459.959088 285.626696 
L 461.614874 284.526295 
L 463.27066 285.253782 
L 464.926447 287.246731 
L 466.582233 287.155031 
L 468.238019 286.51313 
L 469.893806 287.075558 
L 471.549592 286.745437 
L 473.205378 286.268597 
L 476.516951 283.743788 
L 478.172737 283.432007 
L 479.828524 284.550748 
L 481.48431 288.072032 
L 483.140096 289.282473 
L 484.795883 287.595192 
L 486.451669 290.505141 
L 488.107455 289.1113 
L 489.763242 289.612594 
L 491.419028 286.482564 
L 493.074815 282.94294 
L 494.730601 287.100011 
L 496.386387 288.744499 
L 499.69796 287.796932 
L 501.353746 289.612594 
L 503.009533 288.408266 
L 504.665319 284.691355 
L 507.976892 278.382389 
L 509.632678 283.27306 
L 511.288464 287.741912 
L 512.944251 279.348296 
L 514.600037 281.365698 
L 516.255823 283.16302 
L 517.91161 285.333256 
L 519.567396 286.433657 
L 521.223182 287.265071 
L 524.534755 284.391802 
L 526.190542 284.501842 
L 527.846328 287.044991 
L 529.502114 286.36641 
L 531.157901 282.912373 
L 532.813687 284.483502 
L 534.469473 285.74285 
L 537.781046 287.821385 
L 539.436832 285.247669 
L 541.092619 282.973507 
L 542.748405 277.618221 
L 544.404191 275.399079 
L 546.059978 273.986897 
L 547.715764 270.600107 
L 549.37155 270.716261 
L 551.027337 275.313492 
L 552.683123 277.587654 
L 554.338909 277.807735 
L 555.994696 274.922238 
L 557.650482 275.521346 
L 559.306269 279.226029 
L 560.962055 281.249545 
L 562.617841 284.575202 
L 564.273628 288.616119 
L 565.929414 289.25802 
L 567.5852 286.623171 
L 570.896773 287.882519 
L 572.552559 287.375111 
L 574.208346 285.68783 
L 575.864132 284.764715 
L 577.519918 283.615407 
L 579.175705 284.893095 
L 580.831491 286.543697 
L 582.487277 285.394389 
L 584.143064 282.459986 
L 585.79885 283.358647 
L 587.454636 281.084485 
L 589.110423 281.793632 
L 590.766209 278.926476 
L 592.421996 266.59587 
L 594.077782 264.878021 
L 595.733568 270.575654 
L 597.389355 269.524159 
L 599.045141 276.144906 
L 600.700927 273.730137 
L 600.700927 273.730137 
" clip-path="url(#pb51f5e0c76)" style="fill: none; stroke: #696969; stroke-width: 1.5; stroke-linecap: square"/>
   </g>
   <g id="patch_3">
    <path d="M 46.0125 294.118125 
L 46.0125 22.318125 
" style="fill: none; stroke: #000000; stroke-width: 0.8; stroke-linejoin: miter; stroke-linecap: square"/>
   </g>
   <g id="patch_4">
    <path d="M 604.0125 294.118125 
L 604.0125 22.318125 
" style="fill: none; stroke: #000000; stroke-width: 0.8; stroke-linejoin: miter; stroke-linecap: square"/>
   </g>
   <g id="patch_5">
    <path d="M 46.0125 294.118125 
L 604.0125 294.118125 
" style="fill: none; stroke: #000000; stroke-width: 0.8; stroke-linejoin: miter; stroke-linecap: square"/>
   </g>
   <g id="patch_6">
    <path d="M 46.0125 22.318125 
L 604.0125 22.318125 
" style="fill: none; stroke: #000000; stroke-width: 0.8; stroke-linejoin: miter; stroke-linecap: square"/>
   </g>
   <g id="text_17">
    <!-- TCA08 -->
    <g transform="translate(565.53 16.318125)scale(0.12 -0.12)">
     <defs>
      <path id="DejaVuSans-54" d="M -19 4666 
L 3928 4666 
L 3928 4134 
L 2272 4134 
L 2272 0 
L 1638 0 
L 1638 4134 
L -19 4134 
L -19 4666 
z
" transform="scale(0.015625)"/>
      <path id="DejaVuSans-43" d="M 4122 4306 
L 4122 3641 
Q 3803 3938 3442 4084 
Q 3081 4231 2675 4231 
Q 1875 4231 1450 3742 
Q 1025 3253 1025 2328 
Q 1025 1406 1450 917 
Q 1875 428 2675 428 
Q 3081 428 3442 575 
Q 3803 722 4122 1019 
L 4122 359 
Q 3791 134 3420 21 
Q 3050 -91 2638 -91 
Q 1578 -91 968 557 
Q 359 1206 359 2328 
Q 359 3453 968 4101 
Q 1578 4750 2638 4750 
Q 3056 4750 3426 4639 
Q 3797 4528 4122 4306 
z
" transform="scale(0.015625)"/>
      <path id="DejaVuSans-41" d="M 2188 4044 
L 1331 1722 
L 3047 1722 
L 2188 4044 
z
M 1831 4666 
L 2547 4666 
L 4325 0 
L 3669 0 
L 3244 1197 
L 1141 1197 
L 716 0 
L 50 0 
L 1831 4666 
z
" transform="scale(0.015625)"/>
     </defs>
     <use xlink:href="#DejaVuSans-54"/>
     <use xlink:href="#DejaVuSans-43" x="55.208984"/>
     <use xlink:href="#DejaVuSans-41" x="125.033203"/>
     <use xlink:href="#DejaVuSans-30" x="193.441406"/>
     <use xlink:href="#DejaVuSans-38" x="257.064453"/>
    </g>
   </g>
   <g id="legend_1">
    <g id="patch_7">
     <path d="M 514.096875 59.9525 
L 597.0125 59.9525 
Q 599.0125 59.9525 599.0125 57.9525 
L 599.0125 29.318125 
Q 599.0125 27.318125 597.0125 27.318125 
L 514.096875 27.318125 
Q 512.096875 27.318125 512.096875 29.318125 
L 512.096875 57.9525 
Q 512.096875 59.9525 514.096875 59.9525 
z
" style="fill: #ffffff; opacity: 0.8; stroke: #cccccc; stroke-linejoin: miter"/>
    </g>
    <g id="line2d_35">
     <path d="M 516.096875 35.416563 
L 526.096875 35.416563 
L 536.096875 35.416563 
" style="fill: none; stroke: #9acd32; stroke-width: 1.5; stroke-linecap: square"/>
    </g>
    <g id="text_18">
     <!-- TCconc -->
     <g transform="translate(544.096875 38.916563)scale(0.1 -0.1)">
      <defs>
       <path id="DejaVuSans-63" d="M 3122 3366 
L 3122 2828 
Q 2878 2963 2633 3030 
Q 2388 3097 2138 3097 
Q 1578 3097 1268 2742 
Q 959 2388 959 1747 
Q 959 1106 1268 751 
Q 1578 397 2138 397 
Q 2388 397 2633 464 
Q 2878 531 3122 666 
L 3122 134 
Q 2881 22 2623 -34 
Q 2366 -91 2075 -91 
Q 1284 -91 818 406 
Q 353 903 353 1747 
Q 353 2603 823 3093 
Q 1294 3584 2113 3584 
Q 2378 3584 2631 3529 
Q 2884 3475 3122 3366 
z
" transform="scale(0.015625)"/>
       <path id="DejaVuSans-6f" d="M 1959 3097 
Q 1497 3097 1228 2736 
Q 959 2375 959 1747 
Q 959 1119 1226 758 
Q 1494 397 1959 397 
Q 2419 397 2687 759 
Q 2956 1122 2956 1747 
Q 2956 2369 2687 2733 
Q 2419 3097 1959 3097 
z
M 1959 3584 
Q 2709 3584 3137 3096 
Q 3566 2609 3566 1747 
Q 3566 888 3137 398 
Q 2709 -91 1959 -91 
Q 1206 -91 779 398 
Q 353 888 353 1747 
Q 353 2609 779 3096 
Q 1206 3584 1959 3584 
z
" transform="scale(0.015625)"/>
       <path id="DejaVuSans-6e" d="M 3513 2113 
L 3513 0 
L 2938 0 
L 2938 2094 
Q 2938 2591 2744 2837 
Q 2550 3084 2163 3084 
Q 1697 3084 1428 2787 
Q 1159 2491 1159 1978 
L 1159 0 
L 581 0 
L 581 3500 
L 1159 3500 
L 1159 2956 
Q 1366 3272 1645 3428 
Q 1925 3584 2291 3584 
Q 2894 3584 3203 3211 
Q 3513 2838 3513 2113 
z
" transform="scale(0.015625)"/>
      </defs>
      <use xlink:href="#DejaVuSans-54"/>
      <use xlink:href="#DejaVuSans-43" x="55.208984"/>
      <use xlink:href="#DejaVuSans-63" x="125.033203"/>
      <use xlink:href="#DejaVuSans-6f" x="180.013672"/>
      <use xlink:href="#DejaVuSans-6e" x="241.195312"/>
      <use xlink:href="#DejaVuSans-63" x="304.574219"/>
     </g>
    </g>
    <g id="line2d_36">
     <path d="M 516.096875 50.094688 
L 526.096875 50.094688 
L 536.096875 50.094688 
" style="fill: none; stroke: #696969; stroke-width: 1.5; stroke-linecap: square"/>
    </g>
    <g id="text_19">
     <!-- AE33_BC6 -->
     <g transform="translate(544.096875 53.594688)scale(0.1 -0.1)">
      <defs>
       <path id="DejaVuSans-45" d="M 628 4666 
L 3578 4666 
L 3578 4134 
L 1259 4134 
L 1259 2753 
L 3481 2753 
L 3481 2222 
L 1259 2222 
L 1259 531 
L 3634 531 
L 3634 0 
L 628 0 
L 628 4666 
z
" transform="scale(0.015625)"/>
       <path id="DejaVuSans-5f" d="M 3263 -1063 
L 3263 -1509 
L -63 -1509 
L -63 -1063 
L 3263 -1063 
z
" transform="scale(0.015625)"/>
       <path id="DejaVuSans-42" d="M 1259 2228 
L 1259 519 
L 2272 519 
Q 2781 519 3026 730 
Q 3272 941 3272 1375 
Q 3272 1813 3026 2020 
Q 2781 2228 2272 2228 
L 1259 2228 
z
M 1259 4147 
L 1259 2741 
L 2194 2741 
Q 2656 2741 2882 2914 
Q 3109 3088 3109 3444 
Q 3109 3797 2882 3972 
Q 2656 4147 2194 4147 
L 1259 4147 
z
M 628 4666 
L 2241 4666 
Q 2963 4666 3353 4366 
Q 3744 4066 3744 3513 
Q 3744 3084 3544 2831 
Q 3344 2578 2956 2516 
Q 3422 2416 3680 2098 
Q 3938 1781 3938 1306 
Q 3938 681 3513 340 
Q 3088 0 2303 0 
L 628 0 
L 628 4666 
z
" transform="scale(0.015625)"/>
       <path id="DejaVuSans-36" d="M 2113 2584 
Q 1688 2584 1439 2293 
Q 1191 2003 1191 1497 
Q 1191 994 1439 701 
Q 1688 409 2113 409 
Q 2538 409 2786 701 
Q 3034 994 3034 1497 
Q 3034 2003 2786 2293 
Q 2538 2584 2113 2584 
z
M 3366 4563 
L 3366 3988 
Q 3128 4100 2886 4159 
Q 2644 4219 2406 4219 
Q 1781 4219 1451 3797 
Q 1122 3375 1075 2522 
Q 1259 2794 1537 2939 
Q 1816 3084 2150 3084 
Q 2853 3084 3261 2657 
Q 3669 2231 3669 1497 
Q 3669 778 3244 343 
Q 2819 -91 2113 -91 
Q 1303 -91 875 529 
Q 447 1150 447 2328 
Q 447 3434 972 4092 
Q 1497 4750 2381 4750 
Q 2619 4750 2861 4703 
Q 3103 4656 3366 4563 
z
" transform="scale(0.015625)"/>
      </defs>
      <use xlink:href="#DejaVuSans-41"/>
      <use xlink:href="#DejaVuSans-45" x="68.408203"/>
      <use xlink:href="#DejaVuSans-33" x="131.591797"/>
      <use xlink:href="#DejaVuSans-33" x="195.214844"/>
      <use xlink:href="#DejaVuSans-5f" x="258.837891"/>
      <use xlink:href="#DejaVuSans-42" x="308.837891"/>
      <use xlink:href="#DejaVuSans-43" x="375.691406"/>
      <use xlink:href="#DejaVuSans-36" x="445.515625"/>
     </g>
    </g>
   </g>
  </g>
 </g>
 <defs>
  <clipPath id="pb51f5e0c76">
   <rect x="46.0125" y="22.318125" width="558" height="271.8"/>
  </clipPath>
 </defs>
</svg>
