<?xml version="1.0" encoding="utf-8" standalone="no"?>
<!DOCTYPE svg PUBLIC "-//W3C//DTD SVG 1.1//EN"
  "http://www.w3.org/Graphics/SVG/1.1/DTD/svg11.dtd">
<svg xmlns:xlink="http://www.w3.org/1999/xlink" width="611.525893pt" height="334.594063pt" viewBox="0 0 611.525893 334.594063" xmlns="http://www.w3.org/2000/svg" version="1.1">
 <metadata>
  <rdf:RDF xmlns:dc="http://purl.org/dc/elements/1.1/" xmlns:cc="http://creativecommons.org/ns#" xmlns:rdf="http://www.w3.org/1999/02/22-rdf-syntax-ns#">
   <cc:Work>
    <dc:type rdf:resource="http://purl.org/dc/dcmitype/StillImage"/>
    <dc:date>2023-12-06T03:26:12.343201</dc:date>
    <dc:format>image/svg+xml</dc:format>
    <dc:creator>
     <cc:Agent>
      <dc:title>Matplotlib v3.5.2, https://matplotlib.org/</dc:title>
     </cc:Agent>
    </dc:creator>
   </cc:Work>
  </rdf:RDF>
 </metadata>
 <defs>
  <style type="text/css">*{stroke-linejoin: round; stroke-linecap: butt}</style>
 </defs>
 <g id="figure_1">
  <g id="patch_1">
   <path d="M 0 334.594063 
L 611.525893 334.594063 
L 611.525893 0 
L 0 0 
z
" style="fill: #ffffff"/>
  </g>
  <g id="axes_1">
   <g id="patch_2">
    <path d="M 39.65 299.518125 
L 597.65 299.518125 
L 597.65 22.318125 
L 39.65 22.318125 
z
" style="fill: #ffffff"/>
   </g>
   <g id="PolyCollection_1">
    <defs>
     <path id="mfa5f614b4b" d="M 39.65 -35.075938 
L 39.65 -163.616765 
L 44.078571 -180.628539 
L 48.507143 -137.079735 
L 52.935714 -124.813879 
L 57.364286 -127.587901 
L 61.792857 -132.166708 
L 66.221429 -133.436743 
L 70.65 -147.106321 
L 75.078571 -159.806663 
L 79.507143 -170.835907 
L 83.935714 -179.124551 
L 88.364286 -181.931995 
L 92.792857 -187.647149 
L 97.221429 -189.71931 
L 101.65 -202.820715 
L 106.078571 -206.931615 
L 110.507143 -214.986306 
L 114.935714 -223.943389 
L 119.364286 -225.748174 
L 123.792857 -220.70146 
L 128.221429 -231.897814 
L 132.65 -220.500928 
L 137.078571 -214.117335 
L 141.507143 -211.577267 
L 145.935714 -218.061125 
L 150.364286 -233.602333 
L 154.792857 -229.123792 
L 159.221429 -251.249124 
L 163.65 -269.530932 
L 168.078571 -219.264316 
L 172.507143 -245.032641 
L 176.935714 -284.704498 
L 181.364286 -299.075937 
L 185.792857 -285.07214 
L 190.221429 -298.975672 
L 194.65 -282.498649 
L 199.078571 -253.75577 
L 203.507143 -252.920222 
L 207.935714 -234.270772 
L 212.364286 -238.548782 
L 216.792857 -229.056948 
L 221.221429 -220.835148 
L 225.65 -232.198611 
L 230.078571 -245.132907 
L 234.507143 -258.134046 
L 238.935714 -262.913385 
L 243.364286 -242.659682 
L 247.792857 -224.678672 
L 252.221429 -233.03416 
L 256.65 -223.909967 
L 261.078571 -225.079735 
L 265.507143 -239.71855 
L 269.935714 -203.489154 
L 274.364286 -191.323564 
L 278.792857 -200.915664 
L 283.221429 -212.613347 
L 287.65 -230.326982 
L 292.078571 -220.467506 
L 296.507143 -221.336477 
L 300.935714 -217.62664 
L 305.364286 -244.865531 
L 309.792857 -237.780077 
L 314.221429 -260.674114 
L 318.65 -244.598156 
L 323.078571 -274.076317 
L 327.507143 -208.368759 
L 331.935714 -180.026944 
L 336.364286 -177.687407 
L 340.792857 -168.897434 
L 345.221429 -169.632717 
L 349.65 -167.527134 
L 354.078571 -172.473583 
L 358.507143 -191.123032 
L 362.935714 -191.390408 
L 367.364286 -180.728805 
L 371.792857 -176.216841 
L 376.221429 -175.347871 
L 380.65 -172.573849 
L 385.078571 -176.317107 
L 389.507143 -173.208866 
L 393.935714 -186.711334 
L 398.364286 -181.464088 
L 402.792857 -216.824513 
L 407.221429 -208.602713 
L 411.65 -222.172026 
L 416.078571 -215.721589 
L 420.507143 -210.708296 
L 424.935714 -220.868569 
L 429.364286 -225.881862 
L 433.792857 -235.173165 
L 438.221429 -227.653226 
L 442.65 -206.029223 
L 447.078571 -202.519918 
L 451.507143 -196.136325 
L 455.935714 -213.783116 
L 460.364286 -220.968835 
L 464.792857 -202.586762 
L 469.221429 -182.86781 
L 473.65 -189.752732 
L 478.078571 -210.240389 
L 482.507143 -212.178862 
L 486.935714 -169.532451 
L 491.364286 -174.412056 
L 495.792857 -185.708676 
L 500.221429 -189.986686 
L 504.65 -196.503966 
L 509.078571 -211.844642 
L 513.507143 -225.313689 
L 517.935714 -226.282926 
L 522.364286 -188.1819 
L 526.792857 -230.861733 
L 531.221429 -205.360784 
L 535.65 -173.676773 
L 540.078571 -185.875786 
L 544.507143 -214.919462 
L 548.935714 -204.558657 
L 553.364286 -256.529792 
L 557.792857 -190.9225 
L 562.221429 -215.454213 
L 566.65 -172.573849 
L 571.078571 -149.211904 
L 575.507143 -161.410917 
L 579.935714 -169.465607 
L 584.364286 -184.438642 
L 588.792857 -190.9225 
L 588.792857 -190.9225 
L 588.792857 -190.9225 
L 588.792857 -35.075938 
L 588.792857 -35.075938 
L 588.792857 -35.075938 
L 588.792857 -35.075938 
L 584.364286 -35.075938 
L 579.935714 -35.075938 
L 575.507143 -35.075938 
L 571.078571 -35.075938 
L 566.65 -35.075938 
L 562.221429 -35.075938 
L 557.792857 -35.075938 
L 553.364286 -35.075938 
L 548.935714 -35.075938 
L 544.507143 -35.075938 
L 540.078571 -35.075938 
L 535.65 -35.075938 
L 531.221429 -35.075938 
L 526.792857 -35.075938 
L 522.364286 -35.075938 
L 517.935714 -35.075938 
L 513.507143 -35.075938 
L 509.078571 -35.075938 
L 504.65 -35.075938 
L 500.221429 -35.075938 
L 495.792857 -35.075938 
L 491.364286 -35.075938 
L 486.935714 -35.075938 
L 482.507143 -35.075938 
L 478.078571 -35.075938 
L 473.65 -35.075938 
L 469.221429 -35.075938 
L 464.792857 -35.075938 
L 460.364286 -35.075938 
L 455.935714 -35.075938 
L 451.507143 -35.075938 
L 447.078571 -35.075938 
L 442.65 -35.075938 
L 438.221429 -35.075938 
L 433.792857 -35.075938 
L 429.364286 -35.075938 
L 424.935714 -35.075938 
L 420.507143 -35.075938 
L 416.078571 -35.075938 
L 411.65 -35.075938 
L 407.221429 -35.075938 
L 402.792857 -35.075938 
L 398.364286 -35.075938 
L 393.935714 -35.075938 
L 389.507143 -35.075938 
L 385.078571 -35.075938 
L 380.65 -35.075938 
L 376.221429 -35.075938 
L 371.792857 -35.075938 
L 367.364286 -35.075938 
L 362.935714 -35.075938 
L 358.507143 -35.075938 
L 354.078571 -35.075938 
L 349.65 -35.075938 
L 345.221429 -35.075938 
L 340.792857 -35.075938 
L 336.364286 -35.075938 
L 331.935714 -35.075938 
L 327.507143 -35.075938 
L 323.078571 -35.075938 
L 318.65 -35.075938 
L 314.221429 -35.075938 
L 309.792857 -35.075938 
L 305.364286 -35.075938 
L 300.935714 -35.075938 
L 296.507143 -35.075938 
L 292.078571 -35.075938 
L 287.65 -35.075938 
L 283.221429 -35.075938 
L 278.792857 -35.075938 
L 274.364286 -35.075938 
L 269.935714 -35.075938 
L 265.507143 -35.075938 
L 261.078571 -35.075938 
L 256.65 -35.075938 
L 252.221429 -35.075938 
L 247.792857 -35.075938 
L 243.364286 -35.075938 
L 238.935714 -35.075938 
L 234.507143 -35.075938 
L 230.078571 -35.075938 
L 225.65 -35.075938 
L 221.221429 -35.075938 
L 216.792857 -35.075938 
L 212.364286 -35.075938 
L 207.935714 -35.075938 
L 203.507143 -35.075938 
L 199.078571 -35.075938 
L 194.65 -35.075938 
L 190.221429 -35.075938 
L 185.792857 -35.075938 
L 181.364286 -35.075938 
L 176.935714 -35.075938 
L 172.507143 -35.075938 
L 168.078571 -35.075938 
L 163.65 -35.075938 
L 159.221429 -35.075938 
L 154.792857 -35.075938 
L 150.364286 -35.075938 
L 145.935714 -35.075938 
L 141.507143 -35.075938 
L 137.078571 -35.075938 
L 132.65 -35.075938 
L 128.221429 -35.075938 
L 123.792857 -35.075938 
L 119.364286 -35.075938 
L 114.935714 -35.075938 
L 110.507143 -35.075938 
L 106.078571 -35.075938 
L 101.65 -35.075938 
L 97.221429 -35.075938 
L 92.792857 -35.075938 
L 88.364286 -35.075938 
L 83.935714 -35.075938 
L 79.507143 -35.075938 
L 75.078571 -35.075938 
L 70.65 -35.075938 
L 66.221429 -35.075938 
L 61.792857 -35.075938 
L 57.364286 -35.075938 
L 52.935714 -35.075938 
L 48.507143 -35.075938 
L 44.078571 -35.075938 
L 39.65 -35.075938 
z
" style="stroke: #9acd32"/>
    </defs>
    <g clip-path="url(#p64a9ebd11b)">
     <use xlink:href="#mfa5f614b4b" x="0" y="334.594063" style="fill: #9acd32; stroke: #9acd32"/>
    </g>
   </g>
   <g id="PolyCollection_2">
    <defs>
     <path id="m0f54e355e8" d="M 39.65 -35.075938 
L 39.65 -62.214563 
L 44.078571 -59.841604 
L 48.507143 -54.360404 
L 52.935714 -50.082394 
L 57.364286 -50.216082 
L 61.792857 -49.647909 
L 66.221429 -53.992762 
L 70.65 -60.810841 
L 75.078571 -62.51536 
L 79.507143 -71.672975 
L 83.935714 -74.747795 
L 88.364286 -76.786534 
L 92.792857 -78.491053 
L 97.221429 -80.730324 
L 101.65 -84.573849 
L 106.078571 -89.05239 
L 110.507143 -92.862493 
L 114.935714 -100.248744 
L 119.364286 -105.295459 
L 123.792857 -97.842364 
L 128.221429 -100.750073 
L 132.65 -97.574988 
L 137.078571 -93.029603 
L 141.507143 -90.723488 
L 145.935714 -105.195193 
L 150.364286 -110.876925 
L 154.792857 -114.085432 
L 159.221429 -127.955543 
L 163.65 -130.127969 
L 168.078571 -95.302295 
L 172.507143 -105.930476 
L 176.935714 -122.507764 
L 181.364286 -135.10784 
L 185.792857 -130.228235 
L 190.221429 -133.90465 
L 194.65 -126.986306 
L 199.078571 -108.102903 
L 203.507143 -105.495991 
L 207.935714 -94.065683 
L 212.364286 -105.529413 
L 216.792857 -93.931995 
L 221.221429 -98.510803 
L 225.65 -99.914525 
L 230.078571 -106.532071 
L 234.507143 -109.774001 
L 238.935714 -110.308752 
L 243.364286 -95.202029 
L 247.792857 -84.908068 
L 252.221429 -84.974912 
L 256.65 -80.061885 
L 261.078571 -81.432185 
L 265.507143 -93.698042 
L 269.935714 -74.848061 
L 274.364286 -69.53397 
L 278.792857 -69.600814 
L 283.221429 -81.432185 
L 287.65 -88.785015 
L 292.078571 -86.31179 
L 296.507143 -86.044415 
L 300.935714 -85.509663 
L 305.364286 -93.530932 
L 309.792857 -103.791471 
L 314.221429 -114.252542 
L 318.65 -103.891737 
L 323.078571 -125.582584 
L 327.507143 -83.337236 
L 331.935714 -70.73716 
L 336.364286 -67.060746 
L 340.792857 -64.854897 
L 345.221429 -62.114297 
L 349.65 -64.286724 
L 354.078571 -67.328121 
L 358.507143 -71.572709 
L 362.935714 -79.761088 
L 367.364286 -73.64487 
L 371.792857 -71.840085 
L 376.221429 -66.659682 
L 380.65 -62.448516 
L 385.078571 -64.487255 
L 389.507143 -61.178482 
L 393.935714 -70.269253 
L 398.364286 -72.508524 
L 402.792857 -80.095307 
L 407.221429 -82.835907 
L 411.65 -87.047073 
L 416.078571 -87.481558 
L 420.507143 -82.735641 
L 424.935714 -92.595117 
L 429.364286 -92.160632 
L 433.792857 -97.77552 
L 438.221429 -94.734122 
L 442.65 -87.147339 
L 447.078571 -78.08999 
L 451.507143 -79.827931 
L 455.935714 -88.584483 
L 460.364286 -98.443959 
L 464.792857 -84.473583 
L 469.221429 -77.856036 
L 473.65 -78.290522 
L 478.078571 -87.982888 
L 482.507143 -92.862493 
L 486.935714 -69.166329 
L 491.364286 -68.297358 
L 495.792857 -73.477761 
L 500.221429 -83.638034 
L 504.65 -92.361163 
L 509.078571 -111.010613 
L 513.507143 -111.110879 
L 517.935714 -111.846162 
L 522.364286 -88.785015 
L 526.792857 -103.958581 
L 531.221429 -90.222159 
L 535.65 -74.413575 
L 540.078571 -83.57119 
L 544.507143 -106.298118 
L 548.935714 -94.366481 
L 553.364286 -121.371418 
L 557.792857 -75.717031 
L 562.221429 -87.414715 
L 566.65 -65.723868 
L 571.078571 -54.928577 
L 575.507143 -67.595497 
L 579.935714 -68.932375 
L 584.364286 -75.382812 
L 588.792857 -77.989724 
L 588.792857 -77.989724 
L 588.792857 -77.989724 
L 588.792857 -35.075938 
L 588.792857 -35.075938 
L 588.792857 -35.075938 
L 588.792857 -35.075938 
L 584.364286 -35.075938 
L 579.935714 -35.075938 
L 575.507143 -35.075938 
L 571.078571 -35.075938 
L 566.65 -35.075938 
L 562.221429 -35.075938 
L 557.792857 -35.075938 
L 553.364286 -35.075938 
L 548.935714 -35.075938 
L 544.507143 -35.075938 
L 540.078571 -35.075938 
L 535.65 -35.075938 
L 531.221429 -35.075938 
L 526.792857 -35.075938 
L 522.364286 -35.075938 
L 517.935714 -35.075938 
L 513.507143 -35.075938 
L 509.078571 -35.075938 
L 504.65 -35.075938 
L 500.221429 -35.075938 
L 495.792857 -35.075938 
L 491.364286 -35.075938 
L 486.935714 -35.075938 
L 482.507143 -35.075938 
L 478.078571 -35.075938 
L 473.65 -35.075938 
L 469.221429 -35.075938 
L 464.792857 -35.075938 
L 460.364286 -35.075938 
L 455.935714 -35.075938 
L 451.507143 -35.075938 
L 447.078571 -35.075938 
L 442.65 -35.075938 
L 438.221429 -35.075938 
L 433.792857 -35.075938 
L 429.364286 -35.075938 
L 424.935714 -35.075938 
L 420.507143 -35.075938 
L 416.078571 -35.075938 
L 411.65 -35.075938 
L 407.221429 -35.075938 
L 402.792857 -35.075938 
L 398.364286 -35.075938 
L 393.935714 -35.075938 
L 389.507143 -35.075938 
L 385.078571 -35.075938 
L 380.65 -35.075938 
L 376.221429 -35.075938 
L 371.792857 -35.075938 
L 367.364286 -35.075938 
L 362.935714 -35.075938 
L 358.507143 -35.075938 
L 354.078571 -35.075938 
L 349.65 -35.075938 
L 345.221429 -35.075938 
L 340.792857 -35.075938 
L 336.364286 -35.075938 
L 331.935714 -35.075938 
L 327.507143 -35.075938 
L 323.078571 -35.075938 
L 318.65 -35.075938 
L 314.221429 -35.075938 
L 309.792857 -35.075938 
L 305.364286 -35.075938 
L 300.935714 -35.075938 
L 296.507143 -35.075938 
L 292.078571 -35.075938 
L 287.65 -35.075938 
L 283.221429 -35.075938 
L 278.792857 -35.075938 
L 274.364286 -35.075938 
L 269.935714 -35.075938 
L 265.507143 -35.075938 
L 261.078571 -35.075938 
L 256.65 -35.075938 
L 252.221429 -35.075938 
L 247.792857 -35.075938 
L 243.364286 -35.075938 
L 238.935714 -35.075938 
L 234.507143 -35.075938 
L 230.078571 -35.075938 
L 225.65 -35.075938 
L 221.221429 -35.075938 
L 216.792857 -35.075938 
L 212.364286 -35.075938 
L 207.935714 -35.075938 
L 203.507143 -35.075938 
L 199.078571 -35.075938 
L 194.65 -35.075938 
L 190.221429 -35.075938 
L 185.792857 -35.075938 
L 181.364286 -35.075938 
L 176.935714 -35.075938 
L 172.507143 -35.075938 
L 168.078571 -35.075938 
L 163.65 -35.075938 
L 159.221429 -35.075938 
L 154.792857 -35.075938 
L 150.364286 -35.075938 
L 145.935714 -35.075938 
L 141.507143 -35.075938 
L 137.078571 -35.075938 
L 132.65 -35.075938 
L 128.221429 -35.075938 
L 123.792857 -35.075938 
L 119.364286 -35.075938 
L 114.935714 -35.075938 
L 110.507143 -35.075938 
L 106.078571 -35.075938 
L 101.65 -35.075938 
L 97.221429 -35.075938 
L 92.792857 -35.075938 
L 88.364286 -35.075938 
L 83.935714 -35.075938 
L 79.507143 -35.075938 
L 75.078571 -35.075938 
L 70.65 -35.075938 
L 66.221429 -35.075938 
L 61.792857 -35.075938 
L 57.364286 -35.075938 
L 52.935714 -35.075938 
L 48.507143 -35.075938 
L 44.078571 -35.075938 
L 39.65 -35.075938 
z
" style="stroke: #696969"/>
    </defs>
    <g clip-path="url(#p64a9ebd11b)">
     <use xlink:href="#m0f54e355e8" x="0" y="334.594063" style="fill: #696969; stroke: #696969"/>
    </g>
   </g>
   <g id="matplotlib.axis_1">
    <g id="xtick_1">
     <g id="line2d_1">
      <path d="M 44.078571 299.518125 
L 44.078571 22.318125 
" clip-path="url(#p64a9ebd11b)" style="fill: none; stroke: #b0b0b0; stroke-opacity: 0.9; stroke-width: 0.8; stroke-linecap: square"/>
     </g>
     <g id="line2d_2">
      <defs>
       <path id="m521e7dd808" d="M 0 0 
L 0 3.5 
" style="stroke: #000000; stroke-width: 0.8"/>
      </defs>
      <g>
       <use xlink:href="#m521e7dd808" x="44.078571" y="299.518125" style="stroke: #000000; stroke-width: 0.8"/>
      </g>
     </g>
     <g id="text_1">
      <!-- 01/12/2023 -->
      <g transform="translate(15.259821 314.116563)scale(0.1 -0.1)">
       <defs>
        <path id="DejaVuSans-30" d="M 2034 4250 
Q 1547 4250 1301 3770 
Q 1056 3291 1056 2328 
Q 1056 1369 1301 889 
Q 1547 409 2034 409 
Q 2525 409 2770 889 
Q 3016 1369 3016 2328 
Q 3016 3291 2770 3770 
Q 2525 4250 2034 4250 
z
M 2034 4750 
Q 2819 4750 3233 4129 
Q 3647 3509 3647 2328 
Q 3647 1150 3233 529 
Q 2819 -91 2034 -91 
Q 1250 -91 836 529 
Q 422 1150 422 2328 
Q 422 3509 836 4129 
Q 1250 4750 2034 4750 
z
" transform="scale(0.015625)"/>
        <path id="DejaVuSans-31" d="M 794 531 
L 1825 531 
L 1825 4091 
L 703 3866 
L 703 4441 
L 1819 4666 
L 2450 4666 
L 2450 531 
L 3481 531 
L 3481 0 
L 794 0 
L 794 531 
z
" transform="scale(0.015625)"/>
        <path id="DejaVuSans-2f" d="M 1625 4666 
L 2156 4666 
L 531 -594 
L 0 -594 
L 1625 4666 
z
" transform="scale(0.015625)"/>
        <path id="DejaVuSans-32" d="M 1228 531 
L 3431 531 
L 3431 0 
L 469 0 
L 469 531 
Q 828 903 1448 1529 
Q 2069 2156 2228 2338 
Q 2531 2678 2651 2914 
Q 2772 3150 2772 3378 
Q 2772 3750 2511 3984 
Q 2250 4219 1831 4219 
Q 1534 4219 1204 4116 
Q 875 4013 500 3803 
L 500 4441 
Q 881 4594 1212 4672 
Q 1544 4750 1819 4750 
Q 2544 4750 2975 4387 
Q 3406 4025 3406 3419 
Q 3406 3131 3298 2873 
Q 3191 2616 2906 2266 
Q 2828 2175 2409 1742 
Q 1991 1309 1228 531 
z
" transform="scale(0.015625)"/>
        <path id="DejaVuSans-33" d="M 2597 2516 
Q 3050 2419 3304 2112 
Q 3559 1806 3559 1356 
Q 3559 666 3084 287 
Q 2609 -91 1734 -91 
Q 1441 -91 1130 -33 
Q 819 25 488 141 
L 488 750 
Q 750 597 1062 519 
Q 1375 441 1716 441 
Q 2309 441 2620 675 
Q 2931 909 2931 1356 
Q 2931 1769 2642 2001 
Q 2353 2234 1838 2234 
L 1294 2234 
L 1294 2753 
L 1863 2753 
Q 2328 2753 2575 2939 
Q 2822 3125 2822 3475 
Q 2822 3834 2567 4026 
Q 2313 4219 1838 4219 
Q 1578 4219 1281 4162 
Q 984 4106 628 3988 
L 628 4550 
Q 988 4650 1302 4700 
Q 1616 4750 1894 4750 
Q 2613 4750 3031 4423 
Q 3450 4097 3450 3541 
Q 3450 3153 3228 2886 
Q 3006 2619 2597 2516 
z
" transform="scale(0.015625)"/>
       </defs>
       <use xlink:href="#DejaVuSans-30"/>
       <use xlink:href="#DejaVuSans-31" x="63.623047"/>
       <use xlink:href="#DejaVuSans-2f" x="127.246094"/>
       <use xlink:href="#DejaVuSans-31" x="160.9375"/>
       <use xlink:href="#DejaVuSans-32" x="224.560547"/>
       <use xlink:href="#DejaVuSans-2f" x="288.183594"/>
       <use xlink:href="#DejaVuSans-32" x="321.875"/>
       <use xlink:href="#DejaVuSans-30" x="385.498047"/>
       <use xlink:href="#DejaVuSans-32" x="449.121094"/>
       <use xlink:href="#DejaVuSans-33" x="512.744141"/>
      </g>
      <!--  00:00 -->
      <g transform="translate(28.080134 325.314375)scale(0.1 -0.1)">
       <defs>
        <path id="DejaVuSans-20" transform="scale(0.015625)"/>
        <path id="DejaVuSans-3a" d="M 750 794 
L 1409 794 
L 1409 0 
L 750 0 
L 750 794 
z
M 750 3309 
L 1409 3309 
L 1409 2516 
L 750 2516 
L 750 3309 
z
" transform="scale(0.015625)"/>
       </defs>
       <use xlink:href="#DejaVuSans-20"/>
       <use xlink:href="#DejaVuSans-30" x="31.787109"/>
       <use xlink:href="#DejaVuSans-30" x="95.410156"/>
       <use xlink:href="#DejaVuSans-3a" x="159.033203"/>
       <use xlink:href="#DejaVuSans-30" x="192.724609"/>
       <use xlink:href="#DejaVuSans-30" x="256.347656"/>
      </g>
     </g>
    </g>
    <g id="xtick_2">
     <g id="line2d_3">
      <path d="M 150.364286 299.518125 
L 150.364286 22.318125 
" clip-path="url(#p64a9ebd11b)" style="fill: none; stroke: #b0b0b0; stroke-opacity: 0.9; stroke-width: 0.8; stroke-linecap: square"/>
     </g>
     <g id="line2d_4">
      <g>
       <use xlink:href="#m521e7dd808" x="150.364286" y="299.518125" style="stroke: #000000; stroke-width: 0.8"/>
      </g>
     </g>
     <g id="text_2">
      <!-- 02/12/2023 -->
      <g transform="translate(121.545536 314.116563)scale(0.1 -0.1)">
       <use xlink:href="#DejaVuSans-30"/>
       <use xlink:href="#DejaVuSans-32" x="63.623047"/>
       <use xlink:href="#DejaVuSans-2f" x="127.246094"/>
       <use xlink:href="#DejaVuSans-31" x="160.9375"/>
       <use xlink:href="#DejaVuSans-32" x="224.560547"/>
       <use xlink:href="#DejaVuSans-2f" x="288.183594"/>
       <use xlink:href="#DejaVuSans-32" x="321.875"/>
       <use xlink:href="#DejaVuSans-30" x="385.498047"/>
       <use xlink:href="#DejaVuSans-32" x="449.121094"/>
       <use xlink:href="#DejaVuSans-33" x="512.744141"/>
      </g>
      <!--  00:00 -->
      <g transform="translate(134.365848 325.314375)scale(0.1 -0.1)">
       <use xlink:href="#DejaVuSans-20"/>
       <use xlink:href="#DejaVuSans-30" x="31.787109"/>
       <use xlink:href="#DejaVuSans-30" x="95.410156"/>
       <use xlink:href="#DejaVuSans-3a" x="159.033203"/>
       <use xlink:href="#DejaVuSans-30" x="192.724609"/>
       <use xlink:href="#DejaVuSans-30" x="256.347656"/>
      </g>
     </g>
    </g>
    <g id="xtick_3">
     <g id="line2d_5">
      <path d="M 256.65 299.518125 
L 256.65 22.318125 
" clip-path="url(#p64a9ebd11b)" style="fill: none; stroke: #b0b0b0; stroke-opacity: 0.9; stroke-width: 0.8; stroke-linecap: square"/>
     </g>
     <g id="line2d_6">
      <g>
       <use xlink:href="#m521e7dd808" x="256.65" y="299.518125" style="stroke: #000000; stroke-width: 0.8"/>
      </g>
     </g>
     <g id="text_3">
      <!-- 03/12/2023 -->
      <g transform="translate(227.83125 314.116563)scale(0.1 -0.1)">
       <use xlink:href="#DejaVuSans-30"/>
       <use xlink:href="#DejaVuSans-33" x="63.623047"/>
       <use xlink:href="#DejaVuSans-2f" x="127.246094"/>
       <use xlink:href="#DejaVuSans-31" x="160.9375"/>
       <use xlink:href="#DejaVuSans-32" x="224.560547"/>
       <use xlink:href="#DejaVuSans-2f" x="288.183594"/>
       <use xlink:href="#DejaVuSans-32" x="321.875"/>
       <use xlink:href="#DejaVuSans-30" x="385.498047"/>
       <use xlink:href="#DejaVuSans-32" x="449.121094"/>
       <use xlink:href="#DejaVuSans-33" x="512.744141"/>
      </g>
      <!--  00:00 -->
      <g transform="translate(240.651563 325.314375)scale(0.1 -0.1)">
       <use xlink:href="#DejaVuSans-20"/>
       <use xlink:href="#DejaVuSans-30" x="31.787109"/>
       <use xlink:href="#DejaVuSans-30" x="95.410156"/>
       <use xlink:href="#DejaVuSans-3a" x="159.033203"/>
       <use xlink:href="#DejaVuSans-30" x="192.724609"/>
       <use xlink:href="#DejaVuSans-30" x="256.347656"/>
      </g>
     </g>
    </g>
    <g id="xtick_4">
     <g id="line2d_7">
      <path d="M 362.935714 299.518125 
L 362.935714 22.318125 
" clip-path="url(#p64a9ebd11b)" style="fill: none; stroke: #b0b0b0; stroke-opacity: 0.9; stroke-width: 0.8; stroke-linecap: square"/>
     </g>
     <g id="line2d_8">
      <g>
       <use xlink:href="#m521e7dd808" x="362.935714" y="299.518125" style="stroke: #000000; stroke-width: 0.8"/>
      </g>
     </g>
     <g id="text_4">
      <!-- 04/12/2023 -->
      <g transform="translate(334.116964 314.116563)scale(0.1 -0.1)">
       <defs>
        <path id="DejaVuSans-34" d="M 2419 4116 
L 825 1625 
L 2419 1625 
L 2419 4116 
z
M 2253 4666 
L 3047 4666 
L 3047 1625 
L 3713 1625 
L 3713 1100 
L 3047 1100 
L 3047 0 
L 2419 0 
L 2419 1100 
L 313 1100 
L 313 1709 
L 2253 4666 
z
" transform="scale(0.015625)"/>
       </defs>
       <use xlink:href="#DejaVuSans-30"/>
       <use xlink:href="#DejaVuSans-34" x="63.623047"/>
       <use xlink:href="#DejaVuSans-2f" x="127.246094"/>
       <use xlink:href="#DejaVuSans-31" x="160.9375"/>
       <use xlink:href="#DejaVuSans-32" x="224.560547"/>
       <use xlink:href="#DejaVuSans-2f" x="288.183594"/>
       <use xlink:href="#DejaVuSans-32" x="321.875"/>
       <use xlink:href="#DejaVuSans-30" x="385.498047"/>
       <use xlink:href="#DejaVuSans-32" x="449.121094"/>
       <use xlink:href="#DejaVuSans-33" x="512.744141"/>
      </g>
      <!--  00:00 -->
      <g transform="translate(346.937277 325.314375)scale(0.1 -0.1)">
       <use xlink:href="#DejaVuSans-20"/>
       <use xlink:href="#DejaVuSans-30" x="31.787109"/>
       <use xlink:href="#DejaVuSans-30" x="95.410156"/>
       <use xlink:href="#DejaVuSans-3a" x="159.033203"/>
       <use xlink:href="#DejaVuSans-30" x="192.724609"/>
       <use xlink:href="#DejaVuSans-30" x="256.347656"/>
      </g>
     </g>
    </g>
    <g id="xtick_5">
     <g id="line2d_9">
      <path d="M 469.221429 299.518125 
L 469.221429 22.318125 
" clip-path="url(#p64a9ebd11b)" style="fill: none; stroke: #b0b0b0; stroke-opacity: 0.9; stroke-width: 0.8; stroke-linecap: square"/>
     </g>
     <g id="line2d_10">
      <g>
       <use xlink:href="#m521e7dd808" x="469.221429" y="299.518125" style="stroke: #000000; stroke-width: 0.8"/>
      </g>
     </g>
     <g id="text_5">
      <!-- 05/12/2023 -->
      <g transform="translate(440.402679 314.116563)scale(0.1 -0.1)">
       <defs>
        <path id="DejaVuSans-35" d="M 691 4666 
L 3169 4666 
L 3169 4134 
L 1269 4134 
L 1269 2991 
Q 1406 3038 1543 3061 
Q 1681 3084 1819 3084 
Q 2600 3084 3056 2656 
Q 3513 2228 3513 1497 
Q 3513 744 3044 326 
Q 2575 -91 1722 -91 
Q 1428 -91 1123 -41 
Q 819 9 494 109 
L 494 744 
Q 775 591 1075 516 
Q 1375 441 1709 441 
Q 2250 441 2565 725 
Q 2881 1009 2881 1497 
Q 2881 1984 2565 2268 
Q 2250 2553 1709 2553 
Q 1456 2553 1204 2497 
Q 953 2441 691 2322 
L 691 4666 
z
" transform="scale(0.015625)"/>
       </defs>
       <use xlink:href="#DejaVuSans-30"/>
       <use xlink:href="#DejaVuSans-35" x="63.623047"/>
       <use xlink:href="#DejaVuSans-2f" x="127.246094"/>
       <use xlink:href="#DejaVuSans-31" x="160.9375"/>
       <use xlink:href="#DejaVuSans-32" x="224.560547"/>
       <use xlink:href="#DejaVuSans-2f" x="288.183594"/>
       <use xlink:href="#DejaVuSans-32" x="321.875"/>
       <use xlink:href="#DejaVuSans-30" x="385.498047"/>
       <use xlink:href="#DejaVuSans-32" x="449.121094"/>
       <use xlink:href="#DejaVuSans-33" x="512.744141"/>
      </g>
      <!--  00:00 -->
      <g transform="translate(453.222991 325.314375)scale(0.1 -0.1)">
       <use xlink:href="#DejaVuSans-20"/>
       <use xlink:href="#DejaVuSans-30" x="31.787109"/>
       <use xlink:href="#DejaVuSans-30" x="95.410156"/>
       <use xlink:href="#DejaVuSans-3a" x="159.033203"/>
       <use xlink:href="#DejaVuSans-30" x="192.724609"/>
       <use xlink:href="#DejaVuSans-30" x="256.347656"/>
      </g>
     </g>
    </g>
    <g id="xtick_6">
     <g id="line2d_11">
      <path d="M 575.507143 299.518125 
L 575.507143 22.318125 
" clip-path="url(#p64a9ebd11b)" style="fill: none; stroke: #b0b0b0; stroke-opacity: 0.9; stroke-width: 0.8; stroke-linecap: square"/>
     </g>
     <g id="line2d_12">
      <g>
       <use xlink:href="#m521e7dd808" x="575.507143" y="299.518125" style="stroke: #000000; stroke-width: 0.8"/>
      </g>
     </g>
     <g id="text_6">
      <!-- 06/12/2023 -->
      <g transform="translate(546.688393 314.116563)scale(0.1 -0.1)">
       <defs>
        <path id="DejaVuSans-36" d="M 2113 2584 
Q 1688 2584 1439 2293 
Q 1191 2003 1191 1497 
Q 1191 994 1439 701 
Q 1688 409 2113 409 
Q 2538 409 2786 701 
Q 3034 994 3034 1497 
Q 3034 2003 2786 2293 
Q 2538 2584 2113 2584 
z
M 3366 4563 
L 3366 3988 
Q 3128 4100 2886 4159 
Q 2644 4219 2406 4219 
Q 1781 4219 1451 3797 
Q 1122 3375 1075 2522 
Q 1259 2794 1537 2939 
Q 1816 3084 2150 3084 
Q 2853 3084 3261 2657 
Q 3669 2231 3669 1497 
Q 3669 778 3244 343 
Q 2819 -91 2113 -91 
Q 1303 -91 875 529 
Q 447 1150 447 2328 
Q 447 3434 972 4092 
Q 1497 4750 2381 4750 
Q 2619 4750 2861 4703 
Q 3103 4656 3366 4563 
z
" transform="scale(0.015625)"/>
       </defs>
       <use xlink:href="#DejaVuSans-30"/>
       <use xlink:href="#DejaVuSans-36" x="63.623047"/>
       <use xlink:href="#DejaVuSans-2f" x="127.246094"/>
       <use xlink:href="#DejaVuSans-31" x="160.9375"/>
       <use xlink:href="#DejaVuSans-32" x="224.560547"/>
       <use xlink:href="#DejaVuSans-2f" x="288.183594"/>
       <use xlink:href="#DejaVuSans-32" x="321.875"/>
       <use xlink:href="#DejaVuSans-30" x="385.498047"/>
       <use xlink:href="#DejaVuSans-32" x="449.121094"/>
       <use xlink:href="#DejaVuSans-33" x="512.744141"/>
      </g>
      <!--  00:00 -->
      <g transform="translate(559.508705 325.314375)scale(0.1 -0.1)">
       <use xlink:href="#DejaVuSans-20"/>
       <use xlink:href="#DejaVuSans-30" x="31.787109"/>
       <use xlink:href="#DejaVuSans-30" x="95.410156"/>
       <use xlink:href="#DejaVuSans-3a" x="159.033203"/>
       <use xlink:href="#DejaVuSans-30" x="192.724609"/>
       <use xlink:href="#DejaVuSans-30" x="256.347656"/>
      </g>
     </g>
    </g>
    <g id="xtick_7">
     <g id="line2d_13">
      <path d="M 70.65 299.518125 
L 70.65 22.318125 
" clip-path="url(#p64a9ebd11b)" style="fill: none; stroke-dasharray: 2.96,1.28; stroke-dashoffset: 0; stroke: #b0b0b0; stroke-opacity: 0.5; stroke-width: 0.8"/>
     </g>
     <g id="line2d_14">
      <defs>
       <path id="med93c88b75" d="M 0 0 
L 0 2 
" style="stroke: #000000; stroke-width: 0.6"/>
      </defs>
      <g>
       <use xlink:href="#med93c88b75" x="70.65" y="299.518125" style="stroke: #000000; stroke-width: 0.6"/>
      </g>
     </g>
    </g>
    <g id="xtick_8">
     <g id="line2d_15">
      <path d="M 97.221429 299.518125 
L 97.221429 22.318125 
" clip-path="url(#p64a9ebd11b)" style="fill: none; stroke-dasharray: 2.96,1.28; stroke-dashoffset: 0; stroke: #b0b0b0; stroke-opacity: 0.5; stroke-width: 0.8"/>
     </g>
     <g id="line2d_16">
      <g>
       <use xlink:href="#med93c88b75" x="97.221429" y="299.518125" style="stroke: #000000; stroke-width: 0.6"/>
      </g>
     </g>
    </g>
    <g id="xtick_9">
     <g id="line2d_17">
      <path d="M 123.792857 299.518125 
L 123.792857 22.318125 
" clip-path="url(#p64a9ebd11b)" style="fill: none; stroke-dasharray: 2.96,1.28; stroke-dashoffset: 0; stroke: #b0b0b0; stroke-opacity: 0.5; stroke-width: 0.8"/>
     </g>
     <g id="line2d_18">
      <g>
       <use xlink:href="#med93c88b75" x="123.792857" y="299.518125" style="stroke: #000000; stroke-width: 0.6"/>
      </g>
     </g>
    </g>
    <g id="xtick_10">
     <g id="line2d_19">
      <path d="M 176.935714 299.518125 
L 176.935714 22.318125 
" clip-path="url(#p64a9ebd11b)" style="fill: none; stroke-dasharray: 2.96,1.28; stroke-dashoffset: 0; stroke: #b0b0b0; stroke-opacity: 0.5; stroke-width: 0.8"/>
     </g>
     <g id="line2d_20">
      <g>
       <use xlink:href="#med93c88b75" x="176.935714" y="299.518125" style="stroke: #000000; stroke-width: 0.6"/>
      </g>
     </g>
    </g>
    <g id="xtick_11">
     <g id="line2d_21">
      <path d="M 203.507143 299.518125 
L 203.507143 22.318125 
" clip-path="url(#p64a9ebd11b)" style="fill: none; stroke-dasharray: 2.96,1.28; stroke-dashoffset: 0; stroke: #b0b0b0; stroke-opacity: 0.5; stroke-width: 0.8"/>
     </g>
     <g id="line2d_22">
      <g>
       <use xlink:href="#med93c88b75" x="203.507143" y="299.518125" style="stroke: #000000; stroke-width: 0.6"/>
      </g>
     </g>
    </g>
    <g id="xtick_12">
     <g id="line2d_23">
      <path d="M 230.078571 299.518125 
L 230.078571 22.318125 
" clip-path="url(#p64a9ebd11b)" style="fill: none; stroke-dasharray: 2.96,1.28; stroke-dashoffset: 0; stroke: #b0b0b0; stroke-opacity: 0.5; stroke-width: 0.8"/>
     </g>
     <g id="line2d_24">
      <g>
       <use xlink:href="#med93c88b75" x="230.078571" y="299.518125" style="stroke: #000000; stroke-width: 0.6"/>
      </g>
     </g>
    </g>
    <g id="xtick_13">
     <g id="line2d_25">
      <path d="M 283.221429 299.518125 
L 283.221429 22.318125 
" clip-path="url(#p64a9ebd11b)" style="fill: none; stroke-dasharray: 2.96,1.28; stroke-dashoffset: 0; stroke: #b0b0b0; stroke-opacity: 0.5; stroke-width: 0.8"/>
     </g>
     <g id="line2d_26">
      <g>
       <use xlink:href="#med93c88b75" x="283.221429" y="299.518125" style="stroke: #000000; stroke-width: 0.6"/>
      </g>
     </g>
    </g>
    <g id="xtick_14">
     <g id="line2d_27">
      <path d="M 309.792857 299.518125 
L 309.792857 22.318125 
" clip-path="url(#p64a9ebd11b)" style="fill: none; stroke-dasharray: 2.96,1.28; stroke-dashoffset: 0; stroke: #b0b0b0; stroke-opacity: 0.5; stroke-width: 0.8"/>
     </g>
     <g id="line2d_28">
      <g>
       <use xlink:href="#med93c88b75" x="309.792857" y="299.518125" style="stroke: #000000; stroke-width: 0.6"/>
      </g>
     </g>
    </g>
    <g id="xtick_15">
     <g id="line2d_29">
      <path d="M 336.364286 299.518125 
L 336.364286 22.318125 
" clip-path="url(#p64a9ebd11b)" style="fill: none; stroke-dasharray: 2.96,1.28; stroke-dashoffset: 0; stroke: #b0b0b0; stroke-opacity: 0.5; stroke-width: 0.8"/>
     </g>
     <g id="line2d_30">
      <g>
       <use xlink:href="#med93c88b75" x="336.364286" y="299.518125" style="stroke: #000000; stroke-width: 0.6"/>
      </g>
     </g>
    </g>
    <g id="xtick_16">
     <g id="line2d_31">
      <path d="M 389.507143 299.518125 
L 389.507143 22.318125 
" clip-path="url(#p64a9ebd11b)" style="fill: none; stroke-dasharray: 2.96,1.28; stroke-dashoffset: 0; stroke: #b0b0b0; stroke-opacity: 0.5; stroke-width: 0.8"/>
     </g>
     <g id="line2d_32">
      <g>
       <use xlink:href="#med93c88b75" x="389.507143" y="299.518125" style="stroke: #000000; stroke-width: 0.6"/>
      </g>
     </g>
    </g>
    <g id="xtick_17">
     <g id="line2d_33">
      <path d="M 416.078571 299.518125 
L 416.078571 22.318125 
" clip-path="url(#p64a9ebd11b)" style="fill: none; stroke-dasharray: 2.96,1.28; stroke-dashoffset: 0; stroke: #b0b0b0; stroke-opacity: 0.5; stroke-width: 0.8"/>
     </g>
     <g id="line2d_34">
      <g>
       <use xlink:href="#med93c88b75" x="416.078571" y="299.518125" style="stroke: #000000; stroke-width: 0.6"/>
      </g>
     </g>
    </g>
    <g id="xtick_18">
     <g id="line2d_35">
      <path d="M 442.65 299.518125 
L 442.65 22.318125 
" clip-path="url(#p64a9ebd11b)" style="fill: none; stroke-dasharray: 2.96,1.28; stroke-dashoffset: 0; stroke: #b0b0b0; stroke-opacity: 0.5; stroke-width: 0.8"/>
     </g>
     <g id="line2d_36">
      <g>
       <use xlink:href="#med93c88b75" x="442.65" y="299.518125" style="stroke: #000000; stroke-width: 0.6"/>
      </g>
     </g>
    </g>
    <g id="xtick_19">
     <g id="line2d_37">
      <path d="M 495.792857 299.518125 
L 495.792857 22.318125 
" clip-path="url(#p64a9ebd11b)" style="fill: none; stroke-dasharray: 2.96,1.28; stroke-dashoffset: 0; stroke: #b0b0b0; stroke-opacity: 0.5; stroke-width: 0.8"/>
     </g>
     <g id="line2d_38">
      <g>
       <use xlink:href="#med93c88b75" x="495.792857" y="299.518125" style="stroke: #000000; stroke-width: 0.6"/>
      </g>
     </g>
    </g>
    <g id="xtick_20">
     <g id="line2d_39">
      <path d="M 522.364286 299.518125 
L 522.364286 22.318125 
" clip-path="url(#p64a9ebd11b)" style="fill: none; stroke-dasharray: 2.96,1.28; stroke-dashoffset: 0; stroke: #b0b0b0; stroke-opacity: 0.5; stroke-width: 0.8"/>
     </g>
     <g id="line2d_40">
      <g>
       <use xlink:href="#med93c88b75" x="522.364286" y="299.518125" style="stroke: #000000; stroke-width: 0.6"/>
      </g>
     </g>
    </g>
    <g id="xtick_21">
     <g id="line2d_41">
      <path d="M 548.935714 299.518125 
L 548.935714 22.318125 
" clip-path="url(#p64a9ebd11b)" style="fill: none; stroke-dasharray: 2.96,1.28; stroke-dashoffset: 0; stroke: #b0b0b0; stroke-opacity: 0.5; stroke-width: 0.8"/>
     </g>
     <g id="line2d_42">
      <g>
       <use xlink:href="#med93c88b75" x="548.935714" y="299.518125" style="stroke: #000000; stroke-width: 0.6"/>
      </g>
     </g>
    </g>
   </g>
   <g id="matplotlib.axis_2">
    <g id="ytick_1">
     <g id="line2d_43">
      <path d="M 39.65 299.518125 
L 597.65 299.518125 
" clip-path="url(#p64a9ebd11b)" style="fill: none; stroke: #b0b0b0; stroke-opacity: 0.9; stroke-width: 0.8; stroke-linecap: square"/>
     </g>
     <g id="line2d_44">
      <defs>
       <path id="mfa4f3f697c" d="M 0 0 
L -3.5 0 
" style="stroke: #000000; stroke-width: 0.8"/>
      </defs>
      <g>
       <use xlink:href="#mfa4f3f697c" x="39.65" y="299.518125" style="stroke: #000000; stroke-width: 0.8"/>
      </g>
     </g>
     <g id="text_7">
      <!-- 0 -->
      <g transform="translate(26.2875 303.317344)scale(0.1 -0.1)">
       <use xlink:href="#DejaVuSans-30"/>
      </g>
     </g>
    </g>
    <g id="ytick_2">
     <g id="line2d_45">
      <path d="M 39.65 266.096173 
L 597.65 266.096173 
" clip-path="url(#p64a9ebd11b)" style="fill: none; stroke: #b0b0b0; stroke-opacity: 0.9; stroke-width: 0.8; stroke-linecap: square"/>
     </g>
     <g id="line2d_46">
      <g>
       <use xlink:href="#mfa4f3f697c" x="39.65" y="266.096173" style="stroke: #000000; stroke-width: 0.8"/>
      </g>
     </g>
     <g id="text_8">
      <!-- 1000 -->
      <g transform="translate(7.2 269.895392)scale(0.1 -0.1)">
       <use xlink:href="#DejaVuSans-31"/>
       <use xlink:href="#DejaVuSans-30" x="63.623047"/>
       <use xlink:href="#DejaVuSans-30" x="127.246094"/>
       <use xlink:href="#DejaVuSans-30" x="190.869141"/>
      </g>
     </g>
    </g>
    <g id="ytick_3">
     <g id="line2d_47">
      <path d="M 39.65 232.674221 
L 597.65 232.674221 
" clip-path="url(#p64a9ebd11b)" style="fill: none; stroke: #b0b0b0; stroke-opacity: 0.9; stroke-width: 0.8; stroke-linecap: square"/>
     </g>
     <g id="line2d_48">
      <g>
       <use xlink:href="#mfa4f3f697c" x="39.65" y="232.674221" style="stroke: #000000; stroke-width: 0.8"/>
      </g>
     </g>
     <g id="text_9">
      <!-- 2000 -->
      <g transform="translate(7.2 236.473439)scale(0.1 -0.1)">
       <use xlink:href="#DejaVuSans-32"/>
       <use xlink:href="#DejaVuSans-30" x="63.623047"/>
       <use xlink:href="#DejaVuSans-30" x="127.246094"/>
       <use xlink:href="#DejaVuSans-30" x="190.869141"/>
      </g>
     </g>
    </g>
    <g id="ytick_4">
     <g id="line2d_49">
      <path d="M 39.65 199.252269 
L 597.65 199.252269 
" clip-path="url(#p64a9ebd11b)" style="fill: none; stroke: #b0b0b0; stroke-opacity: 0.9; stroke-width: 0.8; stroke-linecap: square"/>
     </g>
     <g id="line2d_50">
      <g>
       <use xlink:href="#mfa4f3f697c" x="39.65" y="199.252269" style="stroke: #000000; stroke-width: 0.8"/>
      </g>
     </g>
     <g id="text_10">
      <!-- 3000 -->
      <g transform="translate(7.2 203.051487)scale(0.1 -0.1)">
       <use xlink:href="#DejaVuSans-33"/>
       <use xlink:href="#DejaVuSans-30" x="63.623047"/>
       <use xlink:href="#DejaVuSans-30" x="127.246094"/>
       <use xlink:href="#DejaVuSans-30" x="190.869141"/>
      </g>
     </g>
    </g>
    <g id="ytick_5">
     <g id="line2d_51">
      <path d="M 39.65 165.830316 
L 597.65 165.830316 
" clip-path="url(#p64a9ebd11b)" style="fill: none; stroke: #b0b0b0; stroke-opacity: 0.9; stroke-width: 0.8; stroke-linecap: square"/>
     </g>
     <g id="line2d_52">
      <g>
       <use xlink:href="#mfa4f3f697c" x="39.65" y="165.830316" style="stroke: #000000; stroke-width: 0.8"/>
      </g>
     </g>
     <g id="text_11">
      <!-- 4000 -->
      <g transform="translate(7.2 169.629535)scale(0.1 -0.1)">
       <use xlink:href="#DejaVuSans-34"/>
       <use xlink:href="#DejaVuSans-30" x="63.623047"/>
       <use xlink:href="#DejaVuSans-30" x="127.246094"/>
       <use xlink:href="#DejaVuSans-30" x="190.869141"/>
      </g>
     </g>
    </g>
    <g id="ytick_6">
     <g id="line2d_53">
      <path d="M 39.65 132.408364 
L 597.65 132.408364 
" clip-path="url(#p64a9ebd11b)" style="fill: none; stroke: #b0b0b0; stroke-opacity: 0.9; stroke-width: 0.8; stroke-linecap: square"/>
     </g>
     <g id="line2d_54">
      <g>
       <use xlink:href="#mfa4f3f697c" x="39.65" y="132.408364" style="stroke: #000000; stroke-width: 0.8"/>
      </g>
     </g>
     <g id="text_12">
      <!-- 5000 -->
      <g transform="translate(7.2 136.207583)scale(0.1 -0.1)">
       <use xlink:href="#DejaVuSans-35"/>
       <use xlink:href="#DejaVuSans-30" x="63.623047"/>
       <use xlink:href="#DejaVuSans-30" x="127.246094"/>
       <use xlink:href="#DejaVuSans-30" x="190.869141"/>
      </g>
     </g>
    </g>
    <g id="ytick_7">
     <g id="line2d_55">
      <path d="M 39.65 98.986412 
L 597.65 98.986412 
" clip-path="url(#p64a9ebd11b)" style="fill: none; stroke: #b0b0b0; stroke-opacity: 0.9; stroke-width: 0.8; stroke-linecap: square"/>
     </g>
     <g id="line2d_56">
      <g>
       <use xlink:href="#mfa4f3f697c" x="39.65" y="98.986412" style="stroke: #000000; stroke-width: 0.8"/>
      </g>
     </g>
     <g id="text_13">
      <!-- 6000 -->
      <g transform="translate(7.2 102.785631)scale(0.1 -0.1)">
       <use xlink:href="#DejaVuSans-36"/>
       <use xlink:href="#DejaVuSans-30" x="63.623047"/>
       <use xlink:href="#DejaVuSans-30" x="127.246094"/>
       <use xlink:href="#DejaVuSans-30" x="190.869141"/>
      </g>
     </g>
    </g>
    <g id="ytick_8">
     <g id="line2d_57">
      <path d="M 39.65 65.56446 
L 597.65 65.56446 
" clip-path="url(#p64a9ebd11b)" style="fill: none; stroke: #b0b0b0; stroke-opacity: 0.9; stroke-width: 0.8; stroke-linecap: square"/>
     </g>
     <g id="line2d_58">
      <g>
       <use xlink:href="#mfa4f3f697c" x="39.65" y="65.56446" style="stroke: #000000; stroke-width: 0.8"/>
      </g>
     </g>
     <g id="text_14">
      <!-- 7000 -->
      <g transform="translate(7.2 69.363679)scale(0.1 -0.1)">
       <defs>
        <path id="DejaVuSans-37" d="M 525 4666 
L 3525 4666 
L 3525 4397 
L 1831 0 
L 1172 0 
L 2766 4134 
L 525 4134 
L 525 4666 
z
" transform="scale(0.015625)"/>
       </defs>
       <use xlink:href="#DejaVuSans-37"/>
       <use xlink:href="#DejaVuSans-30" x="63.623047"/>
       <use xlink:href="#DejaVuSans-30" x="127.246094"/>
       <use xlink:href="#DejaVuSans-30" x="190.869141"/>
      </g>
     </g>
    </g>
    <g id="ytick_9">
     <g id="line2d_59">
      <path d="M 39.65 32.142508 
L 597.65 32.142508 
" clip-path="url(#p64a9ebd11b)" style="fill: none; stroke: #b0b0b0; stroke-opacity: 0.9; stroke-width: 0.8; stroke-linecap: square"/>
     </g>
     <g id="line2d_60">
      <g>
       <use xlink:href="#mfa4f3f697c" x="39.65" y="32.142508" style="stroke: #000000; stroke-width: 0.8"/>
      </g>
     </g>
     <g id="text_15">
      <!-- 8000 -->
      <g transform="translate(7.2 35.941727)scale(0.1 -0.1)">
       <defs>
        <path id="DejaVuSans-38" d="M 2034 2216 
Q 1584 2216 1326 1975 
Q 1069 1734 1069 1313 
Q 1069 891 1326 650 
Q 1584 409 2034 409 
Q 2484 409 2743 651 
Q 3003 894 3003 1313 
Q 3003 1734 2745 1975 
Q 2488 2216 2034 2216 
z
M 1403 2484 
Q 997 2584 770 2862 
Q 544 3141 544 3541 
Q 544 4100 942 4425 
Q 1341 4750 2034 4750 
Q 2731 4750 3128 4425 
Q 3525 4100 3525 3541 
Q 3525 3141 3298 2862 
Q 3072 2584 2669 2484 
Q 3125 2378 3379 2068 
Q 3634 1759 3634 1313 
Q 3634 634 3220 271 
Q 2806 -91 2034 -91 
Q 1263 -91 848 271 
Q 434 634 434 1313 
Q 434 1759 690 2068 
Q 947 2378 1403 2484 
z
M 1172 3481 
Q 1172 3119 1398 2916 
Q 1625 2713 2034 2713 
Q 2441 2713 2670 2916 
Q 2900 3119 2900 3481 
Q 2900 3844 2670 4047 
Q 2441 4250 2034 4250 
Q 1625 4250 1398 4047 
Q 1172 3844 1172 3481 
z
" transform="scale(0.015625)"/>
       </defs>
       <use xlink:href="#DejaVuSans-38"/>
       <use xlink:href="#DejaVuSans-30" x="63.623047"/>
       <use xlink:href="#DejaVuSans-30" x="127.246094"/>
       <use xlink:href="#DejaVuSans-30" x="190.869141"/>
      </g>
     </g>
    </g>
   </g>
   <g id="line2d_61">
    <path d="M 39.65 170.977297 
L 44.078571 153.965523 
L 48.507143 197.514327 
L 52.935714 209.780183 
L 57.364286 207.006161 
L 61.792857 202.427354 
L 66.221429 201.15732 
L 70.65 187.487741 
L 75.078571 174.7874 
L 79.507143 163.758155 
L 83.935714 155.469511 
L 88.364286 152.662067 
L 92.792857 146.946913 
L 97.221429 144.874752 
L 101.65 131.773347 
L 106.078571 127.662447 
L 110.507143 119.607757 
L 114.935714 110.650673 
L 119.364286 108.845888 
L 123.792857 113.892603 
L 128.221429 102.696249 
L 132.65 114.093134 
L 137.078571 120.476727 
L 141.507143 123.016796 
L 145.935714 116.532937 
L 150.364286 100.991729 
L 154.792857 105.470271 
L 159.221429 83.344939 
L 163.65 65.063131 
L 168.078571 115.329747 
L 172.507143 89.561422 
L 176.935714 49.889564 
L 181.364286 35.518125 
L 185.792857 49.521923 
L 190.221429 35.618391 
L 194.65 52.095413 
L 199.078571 80.838292 
L 203.507143 81.673841 
L 207.935714 100.32329 
L 212.364286 96.04528 
L 216.792857 105.537115 
L 221.221429 113.758915 
L 225.65 102.395451 
L 230.078571 89.461156 
L 234.507143 76.460016 
L 238.935714 71.680677 
L 243.364286 91.93438 
L 247.792857 109.91539 
L 252.221429 101.559902 
L 256.65 110.684095 
L 261.078571 109.514327 
L 265.507143 94.875512 
L 269.935714 131.104908 
L 274.364286 143.270499 
L 278.792857 133.678398 
L 283.221429 121.980715 
L 287.65 104.267081 
L 292.078571 114.126556 
L 296.507143 113.257586 
L 300.935714 116.967422 
L 305.364286 89.728531 
L 309.792857 96.813985 
L 314.221429 73.919948 
L 318.65 89.995907 
L 323.078571 60.517745 
L 327.507143 126.225303 
L 331.935714 154.567119 
L 336.364286 156.906655 
L 340.792857 165.696629 
L 345.221429 164.961346 
L 349.65 167.066929 
L 354.078571 162.12048 
L 358.507143 143.47103 
L 362.935714 143.203655 
L 367.364286 153.865258 
L 371.792857 158.377221 
L 376.221429 159.246192 
L 380.65 162.020214 
L 385.078571 158.276955 
L 389.507143 161.385197 
L 393.935714 147.882728 
L 398.364286 153.129975 
L 402.792857 117.769549 
L 407.221429 125.991349 
L 411.65 112.422037 
L 416.078571 118.872474 
L 420.507143 123.885766 
L 424.935714 113.725493 
L 429.364286 108.7122 
L 433.792857 99.420898 
L 438.221429 106.940837 
L 442.65 128.56484 
L 447.078571 132.074145 
L 451.507143 138.457738 
L 455.935714 120.810947 
L 460.364286 113.625227 
L 464.792857 132.007301 
L 469.221429 151.726253 
L 473.65 144.84133 
L 478.078571 124.353674 
L 482.507143 122.415201 
L 486.935714 165.061612 
L 491.364286 160.182007 
L 495.792857 148.885387 
L 500.221429 144.607377 
L 504.65 138.090096 
L 509.078571 122.74942 
L 513.507143 109.280373 
L 517.935714 108.311137 
L 522.364286 146.412162 
L 526.792857 103.732329 
L 531.221429 129.233279 
L 535.65 160.917289 
L 540.078571 148.718277 
L 544.507143 119.674601 
L 548.935714 130.035406 
L 553.364286 78.06427 
L 557.792857 143.671562 
L 562.221429 119.139849 
L 566.65 162.020214 
L 571.078571 185.382158 
L 575.507143 173.183146 
L 579.935714 165.128455 
L 584.364286 150.155421 
L 588.792857 143.671562 
L 588.792857 143.671562 
L 588.792857 143.671562 
" clip-path="url(#p64a9ebd11b)" style="fill: none; stroke: #9acd32; stroke-width: 1.5; stroke-linecap: square"/>
   </g>
   <g id="line2d_62">
    <path d="M 39.65 272.3795 
L 44.078571 274.752458 
L 48.507143 280.233659 
L 52.935714 284.511668 
L 57.364286 284.377981 
L 61.792857 284.946154 
L 66.221429 280.6013 
L 70.65 273.783222 
L 75.078571 272.078702 
L 79.507143 262.921087 
L 83.935714 259.846268 
L 88.364286 257.807529 
L 92.792857 256.103009 
L 97.221429 253.863738 
L 101.65 250.020214 
L 106.078571 245.541672 
L 110.507143 241.73157 
L 114.935714 234.345318 
L 119.364286 229.298604 
L 123.792857 236.751699 
L 128.221429 233.843989 
L 132.65 237.019074 
L 137.078571 241.56446 
L 141.507143 243.870575 
L 145.935714 229.398869 
L 150.364286 223.717138 
L 154.792857 220.50863 
L 159.221429 206.63852 
L 163.65 204.466093 
L 168.078571 239.291767 
L 172.507143 228.663586 
L 176.935714 212.086298 
L 181.364286 199.486222 
L 185.792857 204.365827 
L 190.221429 200.689413 
L 194.65 207.607757 
L 199.078571 226.49116 
L 203.507143 229.098072 
L 207.935714 240.528379 
L 212.364286 229.06465 
L 216.792857 240.662067 
L 221.221429 236.08326 
L 225.65 234.679538 
L 230.078571 228.061991 
L 234.507143 224.820062 
L 238.935714 224.285311 
L 243.364286 239.392033 
L 247.792857 249.685994 
L 252.221429 249.61915 
L 256.65 254.532177 
L 261.078571 253.161877 
L 265.507143 240.896021 
L 269.935714 259.746002 
L 274.364286 265.060092 
L 278.792857 264.993248 
L 283.221429 253.161877 
L 287.65 245.809048 
L 292.078571 248.282272 
L 296.507143 248.549648 
L 300.935714 249.084399 
L 305.364286 241.063131 
L 309.792857 230.802591 
L 314.221429 220.34152 
L 318.65 230.702326 
L 323.078571 209.011479 
L 327.507143 251.256826 
L 331.935714 263.856902 
L 336.364286 267.533317 
L 340.792857 269.739166 
L 345.221429 272.479766 
L 349.65 270.307339 
L 354.078571 267.265941 
L 358.507143 263.021353 
L 362.935714 254.832975 
L 367.364286 260.949192 
L 371.792857 262.753978 
L 376.221429 267.93438 
L 380.65 272.145546 
L 385.078571 270.106807 
L 389.507143 273.41558 
L 393.935714 264.324809 
L 398.364286 262.085539 
L 402.792857 254.498755 
L 407.221429 251.758155 
L 411.65 247.546989 
L 416.078571 247.112504 
L 420.507143 251.858421 
L 424.935714 241.998945 
L 429.364286 242.433431 
L 433.792857 236.818543 
L 438.221429 239.85994 
L 442.65 247.446724 
L 447.078571 256.504073 
L 451.507143 254.766131 
L 455.935714 246.00958 
L 460.364286 236.150104 
L 464.792857 250.12048 
L 469.221429 256.738026 
L 473.65 256.303541 
L 478.078571 246.611175 
L 482.507143 241.73157 
L 486.935714 265.427734 
L 491.364286 266.296705 
L 495.792857 261.116302 
L 500.221429 250.956029 
L 504.65 242.232899 
L 509.078571 223.58345 
L 513.507143 223.483184 
L 517.935714 222.747901 
L 522.364286 245.809048 
L 526.792857 230.635482 
L 531.221429 244.371904 
L 535.65 260.180487 
L 540.078571 251.022872 
L 544.507143 228.295945 
L 548.935714 240.227582 
L 553.364286 213.222645 
L 557.792857 258.877031 
L 562.221429 247.179348 
L 566.65 268.870195 
L 571.078571 279.665485 
L 575.507143 266.998566 
L 579.935714 265.661687 
L 584.364286 259.211251 
L 588.792857 256.604338 
L 588.792857 256.604338 
L 588.792857 256.604338 
" clip-path="url(#p64a9ebd11b)" style="fill: none; stroke: #696969; stroke-width: 1.5; stroke-linecap: square"/>
   </g>
   <g id="patch_3">
    <path d="M 39.65 299.518125 
L 39.65 22.318125 
" style="fill: none; stroke: #000000; stroke-width: 0.8; stroke-linejoin: miter; stroke-linecap: square"/>
   </g>
   <g id="patch_4">
    <path d="M 597.65 299.518125 
L 597.65 22.318125 
" style="fill: none; stroke: #000000; stroke-width: 0.8; stroke-linejoin: miter; stroke-linecap: square"/>
   </g>
   <g id="patch_5">
    <path d="M 39.65 299.518125 
L 597.65 299.518125 
" style="fill: none; stroke: #000000; stroke-width: 0.8; stroke-linejoin: miter; stroke-linecap: square"/>
   </g>
   <g id="patch_6">
    <path d="M 39.65 22.318125 
L 597.65 22.318125 
" style="fill: none; stroke: #000000; stroke-width: 0.8; stroke-linejoin: miter; stroke-linecap: square"/>
   </g>
   <g id="text_16">
    <!-- TCA08 -->
    <g transform="translate(559.1675 16.318125)scale(0.12 -0.12)">
     <defs>
      <path id="DejaVuSans-54" d="M -19 4666 
L 3928 4666 
L 3928 4134 
L 2272 4134 
L 2272 0 
L 1638 0 
L 1638 4134 
L -19 4134 
L -19 4666 
z
" transform="scale(0.015625)"/>
      <path id="DejaVuSans-43" d="M 4122 4306 
L 4122 3641 
Q 3803 3938 3442 4084 
Q 3081 4231 2675 4231 
Q 1875 4231 1450 3742 
Q 1025 3253 1025 2328 
Q 1025 1406 1450 917 
Q 1875 428 2675 428 
Q 3081 428 3442 575 
Q 3803 722 4122 1019 
L 4122 359 
Q 3791 134 3420 21 
Q 3050 -91 2638 -91 
Q 1578 -91 968 557 
Q 359 1206 359 2328 
Q 359 3453 968 4101 
Q 1578 4750 2638 4750 
Q 3056 4750 3426 4639 
Q 3797 4528 4122 4306 
z
" transform="scale(0.015625)"/>
      <path id="DejaVuSans-41" d="M 2188 4044 
L 1331 1722 
L 3047 1722 
L 2188 4044 
z
M 1831 4666 
L 2547 4666 
L 4325 0 
L 3669 0 
L 3244 1197 
L 1141 1197 
L 716 0 
L 50 0 
L 1831 4666 
z
" transform="scale(0.015625)"/>
     </defs>
     <use xlink:href="#DejaVuSans-54"/>
     <use xlink:href="#DejaVuSans-43" x="55.208984"/>
     <use xlink:href="#DejaVuSans-41" x="125.033203"/>
     <use xlink:href="#DejaVuSans-30" x="193.441406"/>
     <use xlink:href="#DejaVuSans-38" x="257.064453"/>
    </g>
   </g>
   <g id="legend_1">
    <g id="patch_7">
     <path d="M 507.734375 59.9525 
L 590.65 59.9525 
Q 592.65 59.9525 592.65 57.9525 
L 592.65 29.318125 
Q 592.65 27.318125 590.65 27.318125 
L 507.734375 27.318125 
Q 505.734375 27.318125 505.734375 29.318125 
L 505.734375 57.9525 
Q 505.734375 59.9525 507.734375 59.9525 
z
" style="fill: #ffffff; opacity: 0.8; stroke: #cccccc; stroke-linejoin: miter"/>
    </g>
    <g id="line2d_63">
     <path d="M 509.734375 35.416563 
L 519.734375 35.416563 
L 529.734375 35.416563 
" style="fill: none; stroke: #9acd32; stroke-width: 1.5; stroke-linecap: square"/>
    </g>
    <g id="text_17">
     <!-- TCconc -->
     <g transform="translate(537.734375 38.916563)scale(0.1 -0.1)">
      <defs>
       <path id="DejaVuSans-63" d="M 3122 3366 
L 3122 2828 
Q 2878 2963 2633 3030 
Q 2388 3097 2138 3097 
Q 1578 3097 1268 2742 
Q 959 2388 959 1747 
Q 959 1106 1268 751 
Q 1578 397 2138 397 
Q 2388 397 2633 464 
Q 2878 531 3122 666 
L 3122 134 
Q 2881 22 2623 -34 
Q 2366 -91 2075 -91 
Q 1284 -91 818 406 
Q 353 903 353 1747 
Q 353 2603 823 3093 
Q 1294 3584 2113 3584 
Q 2378 3584 2631 3529 
Q 2884 3475 3122 3366 
z
" transform="scale(0.015625)"/>
       <path id="DejaVuSans-6f" d="M 1959 3097 
Q 1497 3097 1228 2736 
Q 959 2375 959 1747 
Q 959 1119 1226 758 
Q 1494 397 1959 397 
Q 2419 397 2687 759 
Q 2956 1122 2956 1747 
Q 2956 2369 2687 2733 
Q 2419 3097 1959 3097 
z
M 1959 3584 
Q 2709 3584 3137 3096 
Q 3566 2609 3566 1747 
Q 3566 888 3137 398 
Q 2709 -91 1959 -91 
Q 1206 -91 779 398 
Q 353 888 353 1747 
Q 353 2609 779 3096 
Q 1206 3584 1959 3584 
z
" transform="scale(0.015625)"/>
       <path id="DejaVuSans-6e" d="M 3513 2113 
L 3513 0 
L 2938 0 
L 2938 2094 
Q 2938 2591 2744 2837 
Q 2550 3084 2163 3084 
Q 1697 3084 1428 2787 
Q 1159 2491 1159 1978 
L 1159 0 
L 581 0 
L 581 3500 
L 1159 3500 
L 1159 2956 
Q 1366 3272 1645 3428 
Q 1925 3584 2291 3584 
Q 2894 3584 3203 3211 
Q 3513 2838 3513 2113 
z
" transform="scale(0.015625)"/>
      </defs>
      <use xlink:href="#DejaVuSans-54"/>
      <use xlink:href="#DejaVuSans-43" x="55.208984"/>
      <use xlink:href="#DejaVuSans-63" x="125.033203"/>
      <use xlink:href="#DejaVuSans-6f" x="180.013672"/>
      <use xlink:href="#DejaVuSans-6e" x="241.195312"/>
      <use xlink:href="#DejaVuSans-63" x="304.574219"/>
     </g>
    </g>
    <g id="line2d_64">
     <path d="M 509.734375 50.094688 
L 519.734375 50.094688 
L 529.734375 50.094688 
" style="fill: none; stroke: #696969; stroke-width: 1.5; stroke-linecap: square"/>
    </g>
    <g id="text_18">
     <!-- AE33_BC6 -->
     <g transform="translate(537.734375 53.594688)scale(0.1 -0.1)">
      <defs>
       <path id="DejaVuSans-45" d="M 628 4666 
L 3578 4666 
L 3578 4134 
L 1259 4134 
L 1259 2753 
L 3481 2753 
L 3481 2222 
L 1259 2222 
L 1259 531 
L 3634 531 
L 3634 0 
L 628 0 
L 628 4666 
z
" transform="scale(0.015625)"/>
       <path id="DejaVuSans-5f" d="M 3263 -1063 
L 3263 -1509 
L -63 -1509 
L -63 -1063 
L 3263 -1063 
z
" transform="scale(0.015625)"/>
       <path id="DejaVuSans-42" d="M 1259 2228 
L 1259 519 
L 2272 519 
Q 2781 519 3026 730 
Q 3272 941 3272 1375 
Q 3272 1813 3026 2020 
Q 2781 2228 2272 2228 
L 1259 2228 
z
M 1259 4147 
L 1259 2741 
L 2194 2741 
Q 2656 2741 2882 2914 
Q 3109 3088 3109 3444 
Q 3109 3797 2882 3972 
Q 2656 4147 2194 4147 
L 1259 4147 
z
M 628 4666 
L 2241 4666 
Q 2963 4666 3353 4366 
Q 3744 4066 3744 3513 
Q 3744 3084 3544 2831 
Q 3344 2578 2956 2516 
Q 3422 2416 3680 2098 
Q 3938 1781 3938 1306 
Q 3938 681 3513 340 
Q 3088 0 2303 0 
L 628 0 
L 628 4666 
z
" transform="scale(0.015625)"/>
      </defs>
      <use xlink:href="#DejaVuSans-41"/>
      <use xlink:href="#DejaVuSans-45" x="68.408203"/>
      <use xlink:href="#DejaVuSans-33" x="131.591797"/>
      <use xlink:href="#DejaVuSans-33" x="195.214844"/>
      <use xlink:href="#DejaVuSans-5f" x="258.837891"/>
      <use xlink:href="#DejaVuSans-42" x="308.837891"/>
      <use xlink:href="#DejaVuSans-43" x="375.691406"/>
      <use xlink:href="#DejaVuSans-36" x="445.515625"/>
     </g>
    </g>
   </g>
  </g>
 </g>
 <defs>
  <clipPath id="p64a9ebd11b">
   <rect x="39.65" y="22.318125" width="558" height="277.2"/>
  </clipPath>
 </defs>
</svg>
